<?xml version="1.0" standalone="no"?>
<!DOCTYPE svg PUBLIC "-//W3C//DTD SVG 20010904//EN"
 "http://www.w3.org/TR/2001/REC-SVG-20010904/DTD/svg10.dtd">
<svg version="1.0" xmlns="http://www.w3.org/2000/svg"
 width="598.000000pt" height="598.000000pt" viewBox="0 0 598.000000 598.000000"
 preserveAspectRatio="xMidYMid meet">
<metadata>
Created by potrace 1.14, written by Peter Selinger 2001-2017
</metadata>
<g transform="translate(0.000000,598.000000) scale(0.100000,-0.100000)"
fill="#000000" stroke="none">
<path d="M2611 5965 c0 -11 -4 -38 -7 -60 -4 -29 -3 -36 5 -25 9 13 12 12 26
-5 14 -19 15 -18 5 9 -8 22 -7 34 5 55 l16 26 -20 -23 -20 -23 -4 33 c-2 18
-5 24 -6 13z"/>
<path d="M2770 5960 c-32 -32 -22 -98 12 -85 22 9 41 59 33 84 -8 26 -20 26
-45 1z m33 -12 c7 -20 -11 -60 -25 -56 -18 6 -22 36 -8 53 15 18 26 19 33 3z"/>
<path d="M2836 5934 c-3 -26 -4 -49 -2 -52 3 -2 8 17 11 43 4 25 5 48 3 51 -3
2 -8 -17 -12 -42z"/>
<path d="M2880 5958 c1 -21 2 -22 14 -5 22 29 35 21 26 -18 -4 -20 -4 -38 1
-41 5 -3 9 5 9 18 0 13 3 33 6 46 6 19 3 22 -25 22 -26 0 -31 -4 -31 -22z"/>
<path d="M2960 5950 c0 -16 -1 -33 -2 -37 -1 -5 7 -9 18 -11 15 -2 16 -1 5 6
-9 6 -12 21 -9 41 2 17 1 31 -4 31 -4 0 -8 -13 -8 -30z"/>
<path d="M3010 5971 c0 -5 7 -14 15 -21 22 -18 18 -38 -7 -43 l-23 -4 23 -2
c31 -1 45 36 23 61 -16 19 -31 24 -31 9z"/>
<path d="M2698 5963 c-10 -2 -18 -8 -19 -11 0 -4 -2 -15 -4 -24 -2 -10 -6 -37
-9 -60 -5 -33 -4 -38 4 -20 5 12 18 22 28 22 24 0 47 50 37 79 -3 12 -9 20
-13 20 -4 -1 -15 -3 -24 -6z m22 -32 c0 -30 -11 -51 -26 -51 -17 0 -18 24 -4
51 14 24 30 25 30 0z"/>
<path d="M2355 5923 c-4 -21 -9 -50 -11 -65 -5 -23 -2 -28 14 -28 24 0 33 19
38 83 4 41 2 47 -15 47 -15 0 -22 -9 -26 -37z m35 2 c0 -8 -7 -15 -15 -15 -16
0 -20 12 -8 23 11 12 23 8 23 -8z m-10 -55 c0 -11 -4 -20 -10 -20 -5 0 -10 9
-10 20 0 11 5 20 10 20 6 0 10 -9 10 -20z"/>
<path d="M2545 5940 c-3 -5 1 -10 10 -10 10 0 13 -4 8 -12 -4 -7 -6 -20 -5
-30 2 -9 -2 -19 -8 -23 -5 -3 -10 1 -10 10 0 9 -4 13 -10 10 -21 -13 -10 -36
16 -33 23 3 26 8 30 51 2 35 0 47 -11 47 -7 0 -17 -4 -20 -10z"/>
<path d="M2490 5930 c12 -7 12 -12 2 -22 -9 -9 -12 -9 -12 1 0 7 -4 9 -10 6
-13 -8 -13 -62 1 -71 6 -3 16 -1 22 5 8 8 6 11 -6 11 -24 0 -21 27 3 33 25 7
28 47 3 47 -15 0 -16 -2 -3 -10z"/>
<path d="M2420 5914 c0 -14 3 -14 15 -4 8 7 15 14 15 16 0 2 -7 4 -15 4 -8 0
-15 -7 -15 -16z"/>
<path d="M2872 5910 c0 -14 2 -19 5 -12 2 6 2 18 0 25 -3 6 -5 1 -5 -13z"/>
<path d="M2412 5870 c0 -14 2 -19 5 -12 2 6 2 18 0 25 -3 6 -5 1 -5 -13z"/>
<path d="M3343 5813 c9 -2 25 -2 35 0 9 3 1 5 -18 5 -19 0 -27 -2 -17 -5z"/>
<path d="M3248 5803 c12 -2 32 -2 45 0 12 2 2 4 -23 4 -25 0 -35 -2 -22 -4z"/>
<path d="M3123 5793 c15 -2 39 -2 55 0 15 2 2 4 -28 4 -30 0 -43 -2 -27 -4z"/>
<path d="M3013 5783 c15 -2 37 -2 50 0 12 2 0 4 -28 4 -27 0 -38 -2 -22 -4z"/>
<path d="M2913 5773 c15 -2 37 -2 50 0 12 2 0 4 -28 4 -27 0 -38 -2 -22 -4z"/>
<path d="M2803 5763 c15 -2 37 -2 50 0 12 2 0 4 -28 4 -27 0 -38 -2 -22 -4z"/>
<path d="M2688 5753 c18 -2 45 -2 60 0 15 2 0 4 -33 4 -33 0 -45 -2 -27 -4z"/>
<path d="M4946 5744 c-9 -24 -7 -28 9 -14 17 14 20 30 6 30 -5 0 -12 -7 -15
-16z"/>
<path d="M2490 5740 l-45 -7 42 -1 c23 -1 45 3 48 8 3 6 5 9 3 8 -2 0 -23 -4
-48 -8z"/>
<path d="M2573 5743 c15 -2 39 -2 55 0 15 2 2 4 -28 4 -30 0 -43 -2 -27 -4z"/>
<path d="M4807 5743 c-4 -3 -7 -13 -7 -22 1 -13 3 -13 11 2 11 19 8 33 -4 20z"/>
<path d="M5010 5739 c0 -5 5 -7 10 -4 6 3 10 8 10 11 0 2 -4 4 -10 4 -5 0 -10
-5 -10 -11z"/>
<path d="M4002 5718 c-27 -30 -36 -67 -23 -101 8 -21 17 -27 38 -26 21 1 23 3
8 6 -26 7 -35 21 -35 59 0 19 9 41 25 58 13 14 21 26 16 26 -4 0 -17 -10 -29
-22z"/>
<path d="M4327 5733 c-8 -13 -12 -112 -4 -119 4 -4 7 9 7 30 0 21 5 47 11 58
11 20 -3 50 -14 31z"/>
<path d="M4581 5724 c0 -11 3 -14 6 -6 3 7 2 16 -1 19 -3 4 -6 -2 -5 -13z"/>
<path d="M2172 5712 c-84 -8 -150 -17 -148 -19 5 -6 389 27 395 33 8 7 -90 2
-247 -14z"/>
<path d="M2860 5706 c-6 -8 -10 -25 -7 -38 4 -21 4 -21 6 3 1 27 20 38 54 31
13 -3 15 -10 11 -28 -5 -20 -2 -26 15 -31 15 -4 21 -14 22 -37 l1 -31 8 34 c5
19 4 44 0 55 -5 12 -9 15 -9 9 -1 -7 -8 -13 -16 -13 -17 0 -20 16 -5 25 5 3 7
12 3 20 -7 19 -67 20 -83 1z"/>
<path d="M4267 5688 c8 -44 13 -48 13 -10 0 17 -4 34 -10 37 -6 4 -7 -6 -3
-27z"/>
<path d="M4390 5698 c0 -12 1 -19 3 -17 1 2 9 12 16 22 12 14 11 17 -3 17 -10
0 -16 -8 -16 -22z"/>
<path d="M4523 5678 c-10 -38 -10 -41 3 -24 12 17 20 66 11 66 -2 0 -8 -19
-14 -42z"/>
<path d="M4687 5713 c-4 -3 -7 -18 -7 -32 l0 -25 16 23 c15 21 7 51 -9 34z"/>
<path d="M5870 5710 c0 -5 5 -10 10 -10 6 0 10 5 10 10 0 6 -4 10 -10 10 -5 0
-10 -4 -10 -10z"/>
<path d="M4214 5696 c-3 -8 -4 -22 -2 -30 2 -11 6 -9 15 9 6 15 7 27 2 31 -5
3 -12 -2 -15 -10z"/>
<path d="M4456 5695 c-3 -9 -6 -26 -5 -38 1 -14 4 -9 9 13 9 37 7 52 -4 25z"/>
<path d="M3614 5683 c3 -10 8 -39 12 -65 3 -27 9 -48 13 -48 3 0 15 21 26 47
28 67 29 74 4 28 -20 -36 -23 -38 -30 -20 -4 11 -8 32 -8 48 -1 15 -6 27 -12
27 -6 0 -8 -8 -5 -17z"/>
<path d="M4104 5675 c-19 -29 -12 -75 12 -75 14 0 14 2 0 16 -19 19 -20 22 -2
57 18 34 12 35 -10 2z"/>
<path d="M1845 5680 c-28 -4 -4 -5 55 -2 58 2 107 6 109 8 7 6 -108 2 -164 -6z"/>
<path d="M3893 5670 c-8 -20 -8 -26 3 -28 8 -2 14 -15 14 -28 0 -14 4 -22 10
-19 13 8 13 45 1 45 -5 0 -11 12 -13 28 l-4 27 -11 -25z"/>
<path d="M3946 5675 c-9 -26 -7 -32 5 -12 6 10 9 21 6 23 -2 3 -7 -2 -11 -11z"/>
<path d="M4160 5666 c0 -13 -3 -33 -6 -43 -3 -10 2 -7 10 7 18 29 21 60 6 60
-5 0 -10 -11 -10 -24z"/>
<path d="M3270 5615 c-7 -36 -10 -68 -7 -72 3 -3 19 -2 34 3 27 7 27 8 5 12
-22 3 -22 6 -16 63 4 32 4 59 1 59 -2 0 -10 -29 -17 -65z"/>
<path d="M3467 5629 c-6 -51 -3 -69 11 -69 4 0 6 17 4 39 -2 21 1 42 7 45 5 4
8 13 4 21 -10 28 -20 15 -26 -36z"/>
<path d="M3851 5632 c0 -29 3 -51 8 -48 12 8 21 46 11 46 -5 0 -11 12 -13 28
-2 15 -5 3 -6 -26z"/>
<path d="M1708 5663 c12 -2 30 -2 40 0 9 3 -1 5 -23 4 -22 0 -30 -2 -17 -4z"/>
<path d="M3045 5609 c8 -73 20 -94 34 -58 5 13 17 43 26 67 10 24 15 45 13 48
-3 2 -13 -16 -22 -41 -22 -55 -36 -58 -36 -6 0 22 -5 43 -11 47 -8 5 -9 -11
-4 -57z"/>
<path d="M3556 5661 c7 -8 8 -27 4 -52 -4 -22 -4 -42 1 -44 12 -8 15 5 15 54
-1 30 -6 46 -16 49 -11 3 -12 1 -4 -7z"/>
<path d="M3715 5630 c-4 -23 -5 -43 -2 -46 2 -3 7 14 11 37 4 23 5 44 2 46 -2
2 -7 -14 -11 -37z"/>
<path d="M3806 5654 c-4 -9 -4 -19 -1 -22 2 -3 7 3 11 12 4 9 4 19 1 22 -2 3
-7 -3 -11 -12z"/>
<path d="M4382 5650 c0 -14 2 -19 5 -12 2 6 2 18 0 25 -3 6 -5 1 -5 -13z"/>
<path d="M1623 5653 c9 -2 23 -2 30 0 6 3 -1 5 -18 5 -16 0 -22 -2 -12 -5z"/>
<path d="M3402 5648 c-16 -16 -15 -33 3 -48 21 -17 19 -29 -7 -40 l-23 -9 22
0 c33 -1 47 31 23 56 -17 19 -17 22 -2 37 9 9 12 16 6 16 -5 0 -15 -5 -22 -12z"/>
<path d="M3762 5623 c2 -31 7 -38 26 -39 20 -2 20 -1 1 3 -18 4 -20 9 -15 39
5 22 3 34 -4 34 -7 0 -10 -15 -8 -37z"/>
<path d="M1488 5643 c7 -3 16 -2 19 1 4 3 -2 6 -13 5 -11 0 -14 -3 -6 -6z"/>
<path d="M1528 5643 c6 -2 18 -2 25 0 6 3 1 5 -13 5 -14 0 -19 -2 -12 -5z"/>
<path d="M3343 5600 c-6 -27 -7 -50 -2 -50 9 0 24 88 17 96 -3 2 -10 -18 -15
-46z"/>
<path d="M3136 5618 c-29 -42 -11 -100 24 -78 13 8 12 10 -2 10 -11 0 -18 8
-18 20 0 13 7 20 20 20 15 0 20 7 20 25 0 31 -23 33 -44 3z m34 -3 c0 -8 -7
-15 -15 -15 -26 0 -18 20 13 29 1 1 2 -6 2 -14z"/>
<path d="M3216 5632 c-3 -5 -8 -29 -11 -53 -5 -33 -4 -40 4 -29 6 8 11 24 11
34 0 11 7 28 17 38 14 16 15 18 0 18 -9 0 -18 -4 -21 -8z"/>
<path d="M4201 5624 c0 -11 3 -14 6 -6 3 7 2 16 -1 19 -3 4 -6 -2 -5 -13z"/>
<path d="M2412 5600 c0 -14 2 -19 5 -12 2 6 2 18 0 25 -3 6 -5 1 -5 -13z"/>
<path d="M2444 5606 c-3 -8 -4 -23 -2 -33 3 -11 6 -6 9 15 6 34 2 42 -7 18z"/>
<path d="M2874 5602 c-16 -2 -23 -12 -28 -40 -10 -62 -8 -68 21 -66 23 1 29 6
35 39 12 54 22 59 14 8 -5 -33 -3 -43 8 -43 8 0 15 16 19 41 9 67 4 72 -69 61z
m3 -79 c-3 -10 -5 -2 -5 17 0 19 2 27 5 18 2 -10 2 -26 0 -35z"/>
<path d="M3516 5594 c-7 -19 1 -34 17 -33 9 0 9 2 0 6 -9 3 -10 10 -3 24 6 11
7 19 1 19 -5 0 -12 -7 -15 -16z"/>
<path d="M2597 5579 c-3 -12 0 -28 9 -36 19 -19 18 -22 -8 -33 l-23 -9 23 0
c29 -1 38 23 21 55 -11 22 -11 27 1 34 13 8 12 10 -1 10 -9 0 -19 -10 -22 -21z"/>
<path d="M2032 5569 c-7 -12 -11 -23 -9 -26 3 -3 10 4 16 15 6 12 21 23 33 25
22 4 21 4 -2 6 -16 0 -30 -7 -38 -20z"/>
<path d="M2545 5578 c-8 -28 -11 -77 -3 -72 4 3 8 16 8 29 0 13 7 31 16 39 14
15 14 16 -1 16 -8 0 -17 -6 -20 -12z"/>
<path d="M2240 5561 c0 -10 -3 -33 -6 -50 -5 -26 -3 -31 12 -31 13 0 15 3 7
11 -7 7 -8 21 -2 42 11 40 11 47 -1 47 -5 0 -10 -8 -10 -19z"/>
<path d="M2342 5568 c-7 -7 -12 -17 -12 -22 0 -6 5 -3 11 7 13 22 29 13 29
-18 0 -32 -20 -42 -37 -20 -13 19 -18 9 -7 -19 15 -40 58 2 52 51 -3 30 -18
39 -36 21z"/>
<path d="M2183 5563 c-7 -2 -13 -11 -13 -19 0 -12 4 -12 20 -2 31 20 26 35 -7
21z"/>
<path d="M2287 5563 c-4 -3 -7 -16 -6 -27 0 -14 2 -16 6 -6 3 8 12 21 21 28
14 10 14 12 1 12 -9 0 -19 -3 -22 -7z"/>
<path d="M2466 5547 c-3 -14 -3 -33 0 -41 7 -17 44 -22 44 -6 0 6 -7 10 -15
10 -22 0 -18 27 5 33 11 3 20 11 20 17 0 9 -3 10 -13 1 -9 -7 -17 -7 -24 0 -7
7 -12 3 -17 -14z"/>
<path d="M2102 5548 c-17 -17 -15 -67 4 -75 22 -8 36 9 37 48 2 36 -18 50 -41
27z m34 -12 c6 -17 -12 -56 -26 -56 -6 0 -10 9 -10 19 0 43 24 68 36 37z"/>
<path d="M1751 5524 c0 -11 3 -14 6 -6 3 7 2 16 -1 19 -3 4 -6 -2 -5 -13z"/>
<path d="M1858 5533 c7 -3 16 -2 19 1 4 3 -2 6 -13 5 -11 0 -14 -3 -6 -6z"/>
<path d="M1926 5525 c-4 -12 -3 -21 3 -23 6 -2 11 -13 12 -25 0 -22 1 -22 12
1 7 16 7 26 0 30 -5 4 -12 14 -15 21 -3 12 -6 10 -12 -4z"/>
<path d="M2432 5515 c0 -16 2 -22 5 -12 2 9 2 23 0 30 -3 6 -5 -1 -5 -18z"/>
<path d="M2011 5509 c-1 -33 22 -54 46 -43 16 7 16 8 -4 11 -12 3 -26 16 -32
31 l-9 27 -1 -26z"/>
<path d="M1840 5504 c0 -7 8 -10 20 -7 11 3 20 8 20 12 0 4 -9 7 -20 7 -11 0
-20 -6 -20 -12z"/>
<path d="M5970 5517 c-3 -3 -135 -8 -295 -11 -159 -4 -328 -8 -375 -11 -47 -3
-155 -7 -240 -10 -306 -11 -421 -16 -840 -35 -234 -11 -474 -22 -535 -25 -117
-6 -246 -11 -440 -20 -66 -3 -205 -10 -310 -15 -104 -5 -237 -12 -295 -15 -58
-3 -145 -8 -195 -10 -49 -3 -148 -7 -220 -10 -71 -3 -211 -10 -310 -15 -99 -6
-227 -12 -285 -15 -174 -9 -293 -16 -325 -20 -76 -9 -227 -21 -299 -24 -24 -1
-27 -3 -16 -16 8 -9 23 -13 38 -10 15 2 30 -1 34 -8 6 -9 10 -8 18 3 8 12 10
12 10 1 0 -8 8 -20 18 -28 16 -13 16 -13 -3 -11 -11 1 -26 -2 -34 -7 -10 -5
-16 -4 -19 3 -2 7 -8 9 -14 6 -6 -4 -14 0 -19 7 -7 11 -9 11 -9 -2 0 -9 -7
-22 -16 -29 -26 -22 -37 -50 -20 -50 10 0 13 6 10 15 -5 11 1 15 18 15 13 0
29 5 35 11 16 16 33 2 33 -28 0 -19 3 -23 13 -16 6 6 37 9 67 7 181 -10 220
-8 220 11 0 8 6 15 13 15 9 0 13 -15 13 -47 -1 -42 2 -48 19 -48 15 0 20 7 21
30 2 36 14 75 23 75 13 0 21 -12 14 -23 -12 -19 -12 -88 0 -84 7 2 11 12 10
23 -2 28 15 54 37 54 20 0 26 -11 12 -24 -4 -4 -7 -22 -7 -39 l0 -32 -108 -5
c-82 -4 -111 -2 -120 8 -8 10 -12 10 -18 1 -5 -8 -43 -13 -118 -13 -61 -1
-111 -4 -111 -8 0 -5 -9 -8 -20 -8 -11 0 -20 4 -20 10 0 5 -7 7 -15 3 -9 -3
-32 -6 -53 -7 -30 -1 -36 -5 -34 -20 3 -14 -1 -17 -13 -12 -9 3 -19 6 -22 6
-3 0 1 8 8 17 10 12 10 15 1 9 -14 -8 -52 -83 -46 -89 9 -9 55 6 51 17 -3 6
-10 10 -16 9 -6 -2 -11 4 -11 12 0 18 14 19 42 4 15 -8 17 -13 8 -19 -7 -4
-13 -19 -13 -34 0 -21 -5 -27 -34 -32 -24 -4 -37 -14 -43 -30 -5 -13 -14 -24
-20 -24 -5 0 -9 -11 -8 -25 2 -23 18 -37 18 -15 0 6 7 10 15 10 8 0 15 -5 15
-11 0 -5 4 -8 9 -5 12 8 37 -24 25 -32 -15 -11 -34 -61 -25 -66 5 -3 16 16 26
42 22 58 31 70 46 55 8 -8 7 -20 -4 -44 -8 -19 -19 -46 -25 -61 -11 -28 -42
-39 -42 -16 0 9 -3 9 -12 0 -7 -7 -27 -12 -45 -12 -32 0 -40 -11 -34 -44 1 -5
-12 -6 -28 -3 -18 4 -33 2 -37 -5 -5 -7 -2 -8 7 -3 11 7 12 6 2 -7 -7 -8 -10
-18 -6 -21 3 -4 3 -7 -2 -7 -4 0 -13 6 -19 13 -6 7 -10 10 -8 8 1 -2 -4 -14
-12 -26 -8 -13 -11 -27 -6 -35 11 -17 2 -40 -16 -40 -10 0 -14 -15 -14 -55 0
-65 -23 -118 -48 -113 -11 3 -16 11 -13 23 2 11 5 43 5 71 1 43 5 55 27 70
l26 19 -27 22 -27 22 -13 -97 c-7 -53 -14 -113 -15 -132 -2 -19 -10 -73 -19
-120 -9 -47 -23 -141 -31 -210 -8 -69 -19 -154 -24 -190 -5 -36 -12 -85 -15
-110 -6 -60 -33 -266 -47 -360 -6 -41 -13 -88 -15 -105 -2 -16 -11 -84 -19
-150 -8 -66 -19 -142 -24 -170 -6 -27 -17 -111 -26 -185 -9 -74 -29 -218 -45
-320 -17 -102 -39 -252 -49 -335 -11 -82 -34 -249 -51 -370 -48 -343 -68 -492
-100 -740 -29 -223 -43 -323 -56 -395 -3 -19 -8 -155 -11 -302 l-5 -268 666 0
c437 0 666 3 666 10 0 6 7 10 15 10 8 0 15 -4 15 -10 0 -6 27 -10 63 -10 l62
0 -24 19 c-21 16 -23 24 -18 65 4 25 3 46 -2 46 -11 0 -21 -25 -21 -51 0 -10
-6 -19 -12 -19 -9 0 -13 20 -13 65 0 36 4 65 8 65 19 0 67 -45 67 -63 0 -15 5
-18 22 -14 23 6 98 -29 98 -46 0 -5 -9 -11 -20 -14 -21 -5 -30 -53 -10 -53 6
0 10 9 10 20 0 25 20 26 27 1 4 -17 17 -18 150 -20 100 -1 143 1 138 9 -11 17
27 90 46 90 23 0 34 -17 20 -33 -5 -7 -14 -25 -20 -40 l-11 -27 553 0 552 0 1
33 c1 48 13 87 27 87 7 0 23 -7 36 -16 20 -15 23 -23 18 -62 -6 -55 8 -35 18
26 9 53 35 59 35 7 0 -19 5 -35 10 -35 6 0 10 9 10 19 0 24 12 32 29 21 10 -5
12 -19 8 -44 -5 -34 6 -51 16 -23 3 10 9 10 26 0 13 -9 63 -13 140 -13 l119 0
-16 33 c-12 24 -17 28 -20 14 -4 -20 -20 -23 -28 -3 -10 25 21 161 37 161 10
0 13 -10 12 -38 -2 -25 2 -37 10 -36 38 5 53 -21 21 -39 -14 -8 -14 -14 -3
-50 13 -46 24 -53 32 -22 3 11 13 20 22 20 9 0 19 -9 22 -20 5 -20 14 -20 534
-20 464 0 529 2 529 15 0 17 25 20 35 5 3 -5 11 -10 16 -10 6 0 -1 15 -15 33
-29 38 -32 59 -12 76 24 20 100 -18 89 -45 -5 -13 -9 -13 -29 1 -31 20 -31 8
1 -29 14 -16 25 -33 25 -38 0 -4 11 -8 25 -8 18 0 25 5 25 19 0 11 -4 23 -10
26 -14 8 -13 35 1 35 7 0 17 7 24 17 14 19 35 9 35 -18 0 -10 9 -24 20 -31 27
-17 27 -42 0 -35 -11 3 -22 2 -25 -3 -3 -4 77 -8 178 -9 164 -1 183 1 193 17
7 11 8 26 2 42 -7 18 -11 21 -17 11 -5 -7 -17 -11 -27 -9 -16 3 -19 12 -17 56
3 56 -11 63 -22 12 -8 -37 -21 -45 -48 -32 -12 5 -42 18 -67 28 -56 22 -70 32
-70 51 0 9 8 13 23 11 28 -4 35 32 13 64 -21 29 -20 38 2 38 11 0 24 11 30 25
14 30 28 32 42 6 7 -14 6 -41 -4 -91 -11 -59 -11 -73 0 -77 21 -8 31 4 38 47
7 46 20 49 75 22 28 -14 43 -29 58 -60 0 -2 9 2 20 8 14 9 29 7 71 -9 29 -12
51 -17 48 -12 -3 5 1 14 8 21 21 17 56 -4 56 -34 0 -22 16 -36 41 -36 5 0 9 7
9 16 0 11 8 14 28 12 25 -3 27 -6 25 -42 -2 -22 -10 -50 -18 -63 -15 -22 -14
-23 10 -23 25 0 34 14 15 25 -14 9 0 35 20 35 11 0 20 10 24 25 7 28 27 33 46
10 8 -9 9 -28 5 -56 l-7 -42 38 8 c22 4 43 13 47 21 11 20 33 17 49 -5 12 -16
26 -19 101 -19 l87 0 -1 407 c-1 223 -4 388 -8 366 -8 -47 -17 -65 -35 -65 -7
0 -20 6 -29 12 -15 12 -15 19 -3 78 13 60 12 66 -5 78 -10 6 -19 25 -21 40
l-3 27 -20 -29 c-16 -24 -20 -46 -19 -109 l0 -79 -35 6 c-63 10 -65 19 -41
142 12 60 26 113 30 118 16 16 80 -4 92 -29 5 -12 22 -25 37 -28 14 -3 34 -9
44 -12 16 -7 17 97 16 2091 0 1155 -3 2093 -6 2087 -6 -17 -28 -16 -42 0 -16
20 6 134 31 156 17 16 18 31 16 140 -2 68 -5 121 -8 118z m-80 -191 c6 -8 12
-44 12 -79 0 -49 -6 -75 -26 -116 -30 -58 -50 -71 -73 -49 -13 14 -12 20 7 59
17 32 22 61 22 109 0 36 5 71 10 78 14 16 33 15 48 -2z m-706 -56 c0 -19 -4
-56 -8 -82 -7 -41 -6 -48 8 -48 20 0 21 -24 1 -40 -12 -10 -22 -10 -39 -2 -21
9 -22 15 -20 73 2 34 6 64 9 67 2 3 -3 11 -13 18 -16 11 -16 13 3 34 10 11 28
20 39 18 17 -2 21 -10 20 -38z m-130 5 c-1 -11 -4 -46 -9 -77 -6 -50 -5 -58 9
-58 9 0 16 -6 16 -14 0 -23 -26 -37 -54 -30 -29 7 -32 25 -17 101 6 32 5 46
-5 54 -10 8 -11 16 -3 31 14 27 64 21 63 -7z m-394 -19 c0 -8 9 -16 20 -19 27
-7 25 -25 -5 -39 -29 -13 -37 -68 -9 -68 9 0 14 -7 12 -17 -2 -13 -13 -18 -38
-18 l-35 0 3 49 c1 32 -2 53 -10 58 -10 6 -9 11 5 22 9 7 17 17 17 23 0 14 22
33 32 27 4 -3 8 -11 8 -18z m1110 -11 c12 0 14 -11 12 -50 -3 -51 -22 -78 -47
-69 -7 3 -15 -2 -18 -10 -4 -9 -13 -16 -22 -16 -9 0 -18 7 -22 16 -3 8 -11 13
-18 10 -24 -9 -36 9 -25 38 5 15 7 32 4 37 -8 13 15 39 33 39 8 0 27 9 41 20
25 20 26 20 36 3 6 -10 18 -18 26 -18z m-1785 -12 c-13 -32 -15 -107 -3 -114
24 -15 -1 -39 -42 -39 -44 0 -57 23 -19 35 19 6 21 12 15 51 -3 24 -2 44 2 44
4 0 13 14 20 32 9 24 15 29 23 21 7 -7 8 -20 4 -30z m365 18 c0 -25 -26 -47
-33 -29 -7 17 -47 -27 -47 -52 0 -37 11 -50 31 -39 16 8 19 6 19 -16 0 -14 -3
-25 -7 -25 -5 0 -17 -3 -29 -6 -28 -8 -54 20 -55 59 -1 32 -1 31 -16 -10 -10
-31 -20 -43 -34 -43 -13 0 -18 4 -13 13 6 10 4 10 -7 0 -23 -22 -39 -15 -39
18 0 28 -3 31 -22 25 -13 -3 -31 -6 -40 -6 -10 0 -18 -5 -18 -11 0 -6 12 -9
28 -7 36 4 37 -23 1 -36 -41 -14 -59 -2 -59 40 0 51 28 94 61 94 16 0 30 -7
34 -17 6 -17 7 -17 16 0 13 23 29 22 29 -3 0 -29 46 -28 53 1 4 16 11 20 26
16 12 -3 21 -2 21 2 0 4 9 17 20 29 27 28 80 30 80 3z m985 -7 c10 -10 15 -29
13 -48 -3 -28 -7 -31 -40 -34 -21 -2 -38 -8 -38 -13 0 -6 14 -9 32 -7 57 6 46
-35 -14 -46 -47 -9 -68 11 -68 65 0 71 74 124 115 83z m164 3 c15 -18 -6 -45
-39 -49 -20 -2 -27 -11 -35 -45 -12 -49 -25 -65 -43 -54 -18 11 3 130 26 149
21 16 77 15 91 -1z m-1657 -44 c4 -50 5 -49 30 20 10 25 38 39 38 18 0 -5 -13
-43 -29 -83 -22 -53 -35 -73 -48 -73 -12 0 -18 8 -19 25 -1 14 -2 45 -3 70 -4
64 -3 70 13 70 11 0 16 -14 18 -47z m1108 -9 c0 -62 -36 -107 -82 -102 -31 3
-33 5 -36 49 -2 34 2 52 18 71 38 48 100 37 100 -18z m-2108 40 c4 -3 0 -21
-8 -39 -8 -19 -14 -59 -14 -90 0 -42 -3 -55 -15 -55 -21 0 -20 97 1 150 16 39
24 47 36 34z m631 0 c4 -4 3 -12 0 -18 -12 -19 -13 -99 -1 -113 14 -17 10 -20
-29 -26 -37 -6 -53 8 -30 26 19 14 25 47 13 66 -6 9 -4 18 7 26 10 7 17 20 17
29 0 16 11 21 23 10z m187 -8 c0 -8 7 -16 15 -20 21 -8 19 -24 -5 -31 -14 -4
-20 -15 -20 -36 0 -16 5 -29 10 -29 6 0 10 -7 10 -15 0 -10 -10 -15 -31 -15
-31 0 -32 0 -27 44 3 25 1 49 -4 54 -5 5 -3 14 7 22 8 7 15 19 15 26 0 8 7 14
15 14 8 0 15 -6 15 -14z m1174 6 c7 -12 -6 -28 -39 -43 -23 -11 -31 -23 -38
-56 -5 -29 -13 -43 -24 -43 -13 0 -14 8 -9 50 12 87 20 100 65 100 22 0 42 -4
45 -8z m-1484 -19 c-1 -10 -5 -37 -9 -60 -5 -24 -4 -44 0 -44 5 -1 15 -2 22
-3 6 0 12 -8 12 -16 0 -17 -52 -27 -65 -13 -7 7 4 104 15 141 6 18 25 14 25
-5z m1094 1 c11 -28 6 -74 -10 -99 -12 -18 -25 -25 -49 -25 -29 0 -34 4 -40
28 -11 52 26 112 70 112 12 0 26 -7 29 -16z m126 -28 c0 -54 -16 -99 -33 -93
-8 3 -11 20 -8 53 3 43 1 47 -13 35 -9 -7 -16 -24 -16 -36 0 -34 -10 -55 -27
-55 -11 0 -13 9 -7 48 12 83 18 92 64 92 l40 0 0 -44z m-2145 -26 c-5 -42 -3
-65 5 -75 10 -12 9 -16 -3 -21 -30 -11 -37 6 -33 79 5 85 2 77 22 77 14 0 15
-9 9 -60z m79 -4 c-4 -43 -3 -66 5 -70 16 -10 4 -26 -19 -26 -16 0 -19 10 -22
70 -4 84 -2 90 23 90 18 0 19 -5 13 -64z m394 32 l9 -33 7 33 c4 17 12 32 18
32 10 0 4 -103 -9 -136 -9 -23 -33 -16 -33 10 0 14 -4 28 -10 31 -6 4 -10 -7
-10 -24 0 -22 -5 -31 -16 -31 -12 0 -14 7 -10 28 3 15 8 45 12 67 11 66 28 75
42 23z m886 4 c3 -9 2 -37 -2 -62 -7 -44 -8 -45 -50 -48 -47 -4 -51 4 -31 67
7 20 13 42 15 49 5 19 62 15 68 -6z m-1776 -15 c2 -11 -3 -17 -16 -17 -12 0
-22 -9 -26 -22 -9 -37 -7 -48 10 -48 22 0 14 -34 -9 -38 -12 -3 -20 4 -24 19
-5 19 -7 20 -18 6 -8 -12 -36 -17 -103 -21 -89 -6 -104 -2 -81 21 5 5 11 25
11 42 1 17 5 34 10 37 4 3 6 9 3 14 -7 12 12 23 25 15 7 -4 7 -12 2 -18 -13
-18 -15 -84 -3 -92 7 -4 11 4 11 20 0 46 17 65 55 63 22 -1 35 -6 35 -15 0
-18 19 -17 26 2 4 8 11 15 18 15 6 0 17 9 24 21 15 24 45 22 50 -4z m197 -33
c-17 -13 -20 -45 -5 -60 14 -14 -10 -36 -27 -26 -16 10 -19 93 -4 121 l13 24
19 -24 c16 -21 16 -25 4 -35z m1375 45 c0 -6 -9 -13 -19 -16 -19 -5 -19 -5 -1
-25 28 -31 8 -68 -36 -68 -26 0 -32 4 -28 15 4 8 16 15 27 15 l21 0 -21 15
c-12 9 -20 22 -18 30 3 8 7 22 10 30 5 17 65 21 65 4z m-475 -34 c0 -23 -5
-31 -22 -33 -13 -2 -23 -8 -23 -14 0 -6 9 -8 21 -5 15 4 19 1 17 -11 -2 -11
-13 -17 -33 -17 -27 0 -30 4 -33 33 -4 44 22 84 51 80 17 -2 22 -10 22 -33z
m45 16 c0 -11 5 -23 10 -26 6 -3 10 0 10 8 0 16 28 43 36 34 10 -10 -46 -119
-59 -114 -12 3 -28 94 -20 110 8 14 23 7 23 -12z m140 -22 c0 -56 -14 -79 -50
-79 -35 0 -38 15 -18 80 11 34 17 40 40 40 26 0 28 -3 28 -41z m-1690 -10 c0
-4 -4 -11 -10 -14 -12 -8 -13 -55 -1 -55 8 0 23 39 25 65 1 16 38 18 47 3 6
-9 9 -5 9 15 0 33 30 38 31 5 l0 -23 9 23 c10 23 31 31 29 10 0 -7 -8 -35 -17
-62 -21 -62 -42 -72 -42 -20 0 41 -16 37 -22 -6 -3 -23 -8 -25 -55 -27 l-53
-2 0 45 c0 25 5 55 11 66 11 21 12 21 25 3 8 -10 14 -22 14 -26z m996 27 c3
-8 2 -34 -3 -58 -7 -36 -13 -43 -35 -46 -34 -4 -44 33 -24 83 16 37 51 49 62
21z m94 -2 c0 -9 -9 -18 -19 -21 -12 -3 -23 -18 -28 -40 -9 -37 -29 -45 -26
-10 9 78 13 87 43 87 21 0 30 -5 30 -16z m54 7 c9 -14 -4 -41 -20 -41 -8 0
-14 8 -14 18 0 29 22 43 34 23z m228 -32 c-5 -51 13 -46 22 6 4 19 11 35 16
35 11 0 12 -20 4 -72 -6 -35 -9 -38 -41 -38 l-34 0 7 48 c7 51 11 62 22 62 4
0 6 -19 4 -41z m-834 -27 c-2 -28 -8 -47 -17 -50 -10 -3 -12 3 -9 27 2 17 1
31 -4 31 -4 0 -8 -11 -8 -24 0 -27 -21 -47 -28 -27 -3 9 -9 7 -23 -5 -18 -16
-21 -17 -36 -1 -13 13 -15 24 -7 54 7 31 14 39 37 41 24 3 27 0 29 -30 l1 -33
4 32 c3 19 11 33 21 36 34 7 43 -4 40 -51z m158 47 c4 -8 9 -8 17 0 18 18 45
13 52 -9 4 -11 1 -36 -5 -56 -10 -30 -16 -35 -38 -32 -22 2 -28 9 -30 36 -4
35 -32 46 -32 13 0 -26 -10 -51 -21 -51 -12 0 -11 52 1 84 10 27 43 36 56 15z
m439 -59 c7 -12 -12 -40 -26 -40 -5 0 -9 11 -9 25 0 25 23 35 35 15z m-1767
-91 c-10 -7 -10 -9 2 -10 8 -1 17 -1 20 -1 3 0 6 -8 7 -18 1 -13 -4 -16 -18
-13 -10 3 -17 9 -14 13 3 4 -2 10 -9 13 -8 3 -17 1 -20 -6 -2 -7 -5 -3 -5 9
-1 27 6 33 30 27 16 -5 18 -8 7 -14z m68 -21 c4 -7 3 -8 -4 -4 -7 4 -12 2 -12
-5 0 -7 -3 -10 -6 -6 -6 5 3 27 11 27 2 0 7 -5 11 -12z m-76 -75 c0 -12 -2
-12 -15 1 -8 8 -15 17 -15 20 0 3 7 3 15 0 8 -4 15 -13 15 -21z m-60 -30 c0
-2 -5 -14 -11 -25 -6 -12 -7 -18 -1 -14 5 3 12 0 15 -8 7 -17 -14 -28 -32 -17
-6 4 -9 15 -5 24 4 12 1 17 -10 17 -9 0 -16 7 -16 15 0 17 16 20 25 5 3 -5 11
-10 17 -10 6 0 6 6 -2 15 -11 13 -10 14 4 9 9 -3 16 -8 16 -11z m54 -26 c-3
-9 -11 -17 -17 -17 -8 0 -8 3 0 11 6 6 9 19 6 28 -4 12 -3 13 6 5 6 -6 9 -18
5 -27z m56 -27 c0 -14 -33 -21 -41 -8 -4 6 -6 15 -3 19 5 9 44 -1 44 -11z m62
-61 c-3 -30 -2 -32 10 -17 10 13 26 16 78 13 36 -1 82 -3 103 -4 l38 -1 -3
-42 c-3 -39 -6 -43 -30 -46 -34 -4 -38 18 -9 47 13 13 16 21 8 24 -21 8 -47
-13 -47 -37 0 -13 -7 -26 -15 -30 -13 -4 -14 2 -9 37 l7 42 -22 -19 c-12 -11
-19 -26 -17 -33 8 -21 -14 -27 -102 -28 -95 -1 -105 7 -95 68 5 34 6 35 44 32
34 -4 39 -2 39 16 0 12 5 19 13 16 7 -2 11 -17 9 -38z m334 -23 c-3 -30 -2
-57 3 -60 9 -6 31 36 31 60 0 9 7 14 18 12 19 -4 27 -37 18 -74 -6 -21 -11
-24 -49 -20 l-42 4 -1 58 c0 65 2 74 18 74 7 0 9 -18 4 -54z m379 -30 c-14
-21 -15 -29 -5 -41 15 -18 7 -30 -13 -22 -9 3 -13 19 -11 51 3 58 12 73 31 53
13 -13 13 -18 -2 -41z m517 49 c2 -3 0 -33 -7 -67 -10 -59 -13 -63 -39 -66
-29 -4 -29 -3 -23 40 4 28 13 48 26 57 12 7 21 20 21 27 0 14 12 19 22 9z
m133 -70 c0 -62 -3 -75 -15 -73 -12 3 -15 19 -15 76 0 57 3 72 15 72 12 0 15
-15 15 -75z m181 43 c-3 -18 -8 -52 -12 -75 -5 -33 -11 -42 -30 -46 -31 -5
-34 -1 -34 44 0 35 20 69 40 69 4 0 10 9 13 20 9 35 30 24 23 -12z m220 -32
c-4 -40 -3 -67 4 -71 17 -10 11 -25 -9 -25 -23 0 -30 29 -19 80 4 20 3 37 -3
41 -14 8 0 39 18 39 13 0 15 -10 9 -64z m-1260 33 c4 -8 9 -7 15 2 15 25 22 0
9 -33 -14 -36 -27 -54 -34 -47 -10 11 -17 89 -7 89 5 0 13 -5 17 -11z m94 -14
c0 -18 -5 -25 -20 -25 -13 0 -18 -5 -14 -15 4 -8 10 -12 15 -9 5 3 9 1 9 -5 0
-15 -16 -22 -34 -15 -33 13 -12 94 24 94 15 0 20 -7 20 -25z m60 -20 c0 -26
-5 -45 -11 -45 -7 0 -9 10 -7 25 3 14 1 28 -3 31 -5 3 -10 -2 -10 -10 -3 -36
-5 -40 -16 -43 -9 -3 -11 5 -7 29 9 53 12 58 34 58 17 0 20 -6 20 -45z m129
36 c9 -6 11 -20 6 -50 -6 -35 -10 -41 -32 -41 -24 0 -25 2 -19 42 10 59 16 67
45 49z m1821 -13 c-1 -13 -5 -42 -9 -65 -6 -32 -5 -46 5 -54 22 -18 17 -29
-12 -29 -27 0 -27 0 -22 65 3 36 2 68 -3 70 -14 9 2 35 22 35 13 0 19 -7 19
-22z m113 7 c4 -8 3 -16 -1 -19 -13 -8 -13 -109 -1 -117 20 -12 -1 -29 -36
-29 -41 0 -53 15 -25 30 22 12 28 64 8 76 -8 5 -7 10 4 18 8 6 18 21 22 34 8
25 21 29 29 7z m-1857 -26 c-3 -17 -6 -38 -6 -45 0 -8 -5 -14 -10 -14 -6 0 -8
13 -5 31 4 22 2 30 -7 27 -7 -3 -14 -11 -14 -19 -1 -8 -2 -20 -3 -27 0 -7 -5
-11 -10 -8 -5 3 -5 21 -1 40 4 19 5 37 2 40 -3 4 9 6 28 6 31 0 32 -1 26 -31z
m70 17 c10 -27 -11 -81 -34 -84 -27 -4 -40 23 -24 49 7 10 12 26 12 34 0 19
39 20 46 1z m139 -36 c0 -43 -1 -45 -32 -48 -32 -3 -33 -2 -33 35 0 44 15 65
45 61 17 -3 20 -11 20 -48z m75 0 c0 -40 -20 -66 -45 -56 -20 7 -20 70 0 90
25 24 45 9 45 -34z m150 -2 c0 -48 -8 -64 -30 -62 -8 1 -20 2 -27 3 -7 1 -10
10 -6 24 3 12 7 34 10 50 4 20 11 27 29 27 22 0 24 -4 24 -42z m1620 27 c0 -7
7 -18 16 -23 18 -10 11 -32 -10 -32 -20 0 -25 -46 -7 -64 18 -19 3 -40 -25
-34 -15 3 -19 13 -19 48 0 25 -4 51 -8 58 -5 7 -2 19 7 28 9 8 16 20 16 25 0
5 7 9 15 9 8 0 15 -7 15 -15z m-1302 -22 c-2 -20 -9 -28 -22 -28 -11 0 -21 -6
-24 -14 -3 -10 1 -12 17 -8 27 7 29 -19 1 -28 -27 -8 -40 1 -40 30 0 46 18 75
45 75 23 0 26 -4 23 -27z m250 11 c5 -9 8 -24 6 -33 -13 -71 -14 -72 -42 -69
-25 3 -27 6 -25 47 1 24 4 50 7 58 7 18 43 16 54 -3z m182 -18 c0 -37 -12 -86
-21 -86 -4 0 -9 19 -11 43 -4 42 -11 37 -22 -15 -10 -44 -29 -35 -22 10 12 67
16 72 47 72 24 0 29 -4 29 -24z m42 -21 c-5 -57 15 -61 24 -5 6 37 19 58 30
48 2 -3 -1 -30 -7 -62 -12 -56 -13 -57 -43 -54 -30 3 -30 4 -27 53 3 51 7 65
19 65 4 0 6 -20 4 -45z m142 30 c9 -25 -4 -45 -30 -45 -29 0 -33 -27 -4 -32
29 -4 30 -22 2 -26 -46 -7 -58 26 -33 91 12 30 54 38 65 12z m50 -17 l7 -33
12 24 c23 46 39 37 21 -11 -35 -88 -61 -93 -66 -12 -1 31 -1 58 1 60 11 11 19
1 25 -28z m139 -44 c-8 -48 -9 -49 -43 -49 -31 0 -35 3 -33 25 5 63 15 89 37
93 37 6 48 -14 39 -69z m411 58 c4 -8 -18 -43 -25 -39 -2 1 1 -3 8 -9 16 -14
17 -46 1 -62 -13 -13 -78 -17 -78 -4 1 19 18 32 36 26 17 -6 16 -5 -3 13 -23
20 -22 60 1 75 14 10 54 10 60 0z m211 -9 c12 -12 15 -26 10 -52 -12 -68 -14
-71 -55 -71 -33 0 -39 4 -44 26 -4 15 -2 32 3 37 6 6 11 21 11 34 0 38 47 55
75 26z m-3271 -78 c-7 -11 -14 -40 -16 -65 -3 -34 -8 -46 -22 -48 -17 -4 -18
0 -13 34 4 22 7 58 7 81 0 34 3 41 15 37 9 -4 15 -1 15 7 0 8 6 5 14 -6 12
-16 12 -22 0 -40z m143 -41 c-1 -43 -6 -64 -14 -64 -8 0 -13 16 -14 43 -1 23
-3 54 -4 68 -3 22 0 26 15 22 16 -4 19 -14 17 -69z m67 57 c7 -10 -26 -121
-36 -121 -14 0 -13 76 2 102 16 29 25 34 34 19z m112 -39 c-2 -15 -5 -37 -5
-49 -1 -33 -29 -57 -48 -41 -17 14 -11 67 10 83 7 6 16 18 20 28 10 27 28 10
23 -21z m-436 -6 c-6 -6 -10 -18 -10 -28 0 -10 -5 -18 -11 -18 -7 0 -8 7 -4
18 4 9 10 28 13 40 3 18 7 20 13 11 4 -8 4 -18 -1 -23z m483 18 c-1 -5 -4 -28
-8 -51 -6 -41 -5 -43 20 -43 22 0 24 3 15 19 -16 31 -12 51 10 51 11 0 20 -4
20 -10 0 -5 -4 -10 -10 -10 -5 0 -7 -7 -4 -15 9 -24 24 -17 24 10 0 20 5 25
24 25 31 0 34 -6 29 -52 l-5 -37 -77 1 c-88 2 -97 4 -79 25 6 8 11 28 10 44
-1 16 2 29 8 29 5 0 7 7 3 16 -4 12 -2 15 8 12 8 -3 13 -9 12 -14z m-273 -9
c15 -10 12 -22 -12 -45 -12 -11 -16 -20 -10 -20 7 0 12 -4 12 -10 0 -19 -31
-10 -39 12 -6 18 -9 19 -14 5 -4 -10 -14 -17 -24 -17 -13 0 -14 3 -6 11 9 9 9
16 0 29 -17 28 6 49 48 45 19 -2 39 -6 45 -10z m629 -8 c14 4 17 -2 14 -34 -3
-32 -2 -34 7 -15 10 23 46 30 52 11 5 -16 43 8 57 36 8 15 10 4 5 -45 -4 -36
-8 -68 -11 -72 -8 -14 -43 -8 -43 7 0 8 -4 15 -10 15 -5 0 -10 -4 -10 -10 0
-14 -37 -12 -44 3 -5 10 -7 10 -12 0 -9 -21 -26 -15 -19 7 4 14 2 20 -8 20 -8
0 -18 -10 -22 -22 -3 -13 -8 -18 -11 -12 -3 6 -17 9 -32 6 -22 -4 -25 -2 -15
8 7 7 9 25 6 41 -4 21 -1 30 11 35 21 8 35 -4 17 -15 -7 -5 -10 -14 -7 -20 13
-20 26 -11 26 17 0 28 22 62 28 43 2 -5 11 -7 21 -4z m256 -68 c0 -85 -19 -88
-22 -3 -2 64 3 91 15 80 4 -4 7 -39 7 -77z m-446 -32 c-3 -4 -13 -5 -23 -1
-13 5 -14 9 -5 20 6 8 9 25 7 39 -3 13 0 26 6 28 12 4 26 -73 15 -86z m495 56
c-5 -18 -3 -24 5 -19 6 4 11 13 11 20 0 8 7 19 15 26 20 17 19 1 -4 -64 -19
-54 -41 -72 -42 -34 0 13 -2 37 -5 53 -5 36 2 58 16 50 6 -3 7 -18 4 -32z m96
27 c0 -5 -5 -10 -11 -10 -5 0 -7 5 -4 10 3 6 8 10 11 10 2 0 4 -4 4 -10z
m-528 -12 c-7 -7 -8 -17 -2 -29 13 -24 2 -49 -21 -49 -21 0 -26 16 -6 23 9 3
9 7 -1 19 -17 21 -5 48 21 48 16 0 18 -3 9 -12z m747 3 c7 -5 10 -14 7 -20 -4
-6 -11 -9 -16 -6 -4 3 -13 -2 -20 -10 -15 -18 -9 -71 8 -67 6 1 12 -5 12 -14
0 -10 -7 -14 -22 -12 -17 2 -24 11 -26 31 -4 30 -22 27 -22 -4 0 -14 -7 -19
-30 -19 -25 0 -29 4 -27 22 2 25 -28 37 -46 19 -9 -9 -6 -13 11 -17 30 -8 28
-24 -3 -24 -30 0 -41 32 -25 74 9 25 14 28 41 22 16 -3 37 -13 46 -22 15 -15
18 -15 28 0 7 9 16 16 21 16 5 0 15 9 22 20 13 22 20 24 41 11z m-419 -41 c0
-44 -10 -60 -36 -60 -17 0 -24 6 -24 19 0 11 5 23 11 27 6 3 9 15 6 25 -3 10
0 20 7 22 22 8 36 -5 36 -33z m866 -30 c-5 -47 -4 -70 3 -70 6 0 11 -4 11 -10
0 -15 -40 -12 -41 3 -1 12 -1 125 0 140 1 4 8 7 17 7 14 0 16 -9 10 -70z
m-2043 26 c-3 -4 -9 -2 -14 5 -13 22 -11 31 5 17 8 -7 12 -17 9 -22z m1807 20
c0 -8 6 -17 13 -20 8 -3 7 -8 -5 -16 -21 -13 -24 -66 -5 -73 6 -3 0 -6 -14 -6
-25 -1 -26 1 -24 47 3 52 12 82 26 82 5 0 9 -6 9 -14z m317 -51 c-4 -38 -2
-67 4 -70 13 -8 2 -25 -17 -25 -12 0 -14 15 -13 80 2 63 6 80 17 80 12 0 14
-12 9 -65z m-2032 45 c3 -5 1 -10 -4 -10 -6 0 -11 5 -11 10 0 6 2 10 4 10 3 0
8 -4 11 -10z m1280 -41 c0 -45 -2 -50 -20 -45 -11 3 -24 6 -29 6 -5 0 -1 9 9
20 11 12 16 29 13 45 -4 18 -1 25 11 25 13 0 16 -11 16 -51z m296 24 c4 -62
-16 -101 -45 -90 -18 7 -22 58 -6 88 13 24 50 25 51 2z m79 -13 c0 -34 -13
-80 -22 -80 -6 0 -7 17 -3 42 7 39 6 41 -9 29 -9 -7 -16 -26 -16 -42 0 -16 -5
-29 -11 -29 -9 0 -4 82 7 101 8 14 54 -4 54 -21z m644 14 c8 -20 8 -134 0
-134 -3 0 -14 10 -24 22 l-17 22 -7 -22 c-7 -22 -17 -27 -28 -16 -4 3 4 29 16
57 13 29 26 60 29 70 8 21 23 22 31 1z m179 -17 c-3 -5 -7 -31 -9 -58 -5 -64
19 -69 32 -6 9 40 11 42 48 45 l38 3 -7 -53 c-9 -65 -17 -80 -26 -48 -7 24 -7
24 -8 3 -1 -23 -21 -33 -21 -12 0 7 -5 8 -12 3 -7 -5 -22 -9 -33 -8 -11 1 -33
2 -49 3 l-30 1 23 21 c18 17 22 28 16 55 -3 21 -2 34 5 34 5 0 10 8 10 18 0
10 3 22 7 25 9 9 23 -14 16 -26z m-627 13 c36 1 46 -16 37 -60 -7 -38 -37 -57
-59 -39 -11 9 -14 22 -9 47 6 31 4 33 -17 30 -17 -2 -24 -10 -26 -33 -5 -44
-22 -56 -22 -14 0 64 10 82 39 74 14 -3 40 -6 57 -5z m894 -22 c0 -6 8 -16 17
-23 15 -11 15 -13 -5 -24 -23 -12 -30 -55 -12 -66 19 -12 10 -25 -16 -25 -25
0 -26 2 -22 44 3 25 1 49 -4 54 -5 5 -3 14 7 22 8 7 15 19 15 27 0 8 5 11 10
8 6 -3 10 -11 10 -17z m748 10 c10 -13 -15 -180 -31 -205 -9 -14 -49 -18 -60
-6 -4 3 -1 13 7 22 18 20 37 123 30 160 -6 28 -2 33 37 40 4 0 11 -5 17 -11z
m-3503 -8 c-3 -5 -11 -10 -16 -10 -6 0 -7 5 -4 10 3 6 11 10 16 10 6 0 7 -4 4
-10z m2145 -20 c0 -26 -4 -30 -26 -30 -16 0 -24 -5 -21 -12 2 -7 12 -12 21
-12 9 1 16 -4 16 -12 0 -18 -60 -19 -61 -1 -5 58 13 97 46 97 21 0 25 -5 25
-30z m91 20 c4 0 6 -7 3 -15 -4 -8 -10 -13 -14 -10 -12 7 -27 -16 -35 -53 -10
-47 -26 -29 -19 21 8 49 22 70 41 62 8 -3 19 -5 24 -5z m755 -7 c-2 -10 -7
-38 -11 -63 -11 -76 -13 -80 -50 -80 -28 0 -36 5 -41 24 -8 34 20 96 44 96 11
0 22 9 25 20 3 11 13 20 22 20 11 0 15 -6 11 -17z m-588 -32 c4 -42 -5 -81
-19 -81 -6 0 -9 16 -8 38 3 37 -13 59 -19 25 -8 -48 -13 -63 -22 -58 -10 6 -2
70 12 98 6 11 18 17 31 15 17 -2 23 -11 25 -37z m740 7 l9 -33 17 33 c17 32
36 43 36 19 0 -7 -11 -29 -25 -49 -14 -20 -25 -44 -25 -53 0 -24 -20 -56 -30
-50 -5 3 -6 20 -3 38 3 18 0 50 -6 72 -5 21 -8 42 -5 47 11 17 24 7 32 -24z
m157 12 c0 -9 -9 -15 -25 -15 -32 0 -34 -29 -2 -33 29 -4 23 -25 -9 -32 -30
-7 -39 -40 -10 -40 23 0 38 -19 22 -29 -6 -4 -27 -5 -46 -3 -38 5 -37 -1 -21
82 5 26 19 75 23 83 9 15 68 3 68 -13z m115 4 c0 -3 -5 -15 -11 -26 -9 -17
-13 -18 -20 -7 -7 12 -11 11 -26 -3 -10 -11 -13 -18 -5 -18 16 0 52 -32 52
-47 0 -7 -5 -24 -12 -38 -9 -20 -18 -25 -50 -25 -30 0 -38 4 -38 18 0 27 10
32 31 19 16 -10 21 -9 29 3 6 10 1 19 -22 32 -25 16 -29 23 -23 46 4 15 11 33
17 39 10 13 78 19 78 7z m-730 -38 c0 -59 -16 -86 -49 -86 -32 0 -46 27 -31
64 5 11 11 29 14 39 4 11 16 17 36 17 28 0 30 -3 30 -34z m185 18 c23 -23 15
-48 -18 -52 -31 -4 -38 -32 -7 -32 11 0 20 -7 20 -16 0 -11 -8 -14 -32 -12
-31 3 -33 6 -36 43 -2 30 3 46 18 63 25 26 33 27 55 6z m195 -17 c0 -13 -3
-27 -7 -31 -5 -4 -8 -22 -8 -39 0 -26 -4 -33 -24 -35 -21 -3 -23 -1 -17 25 4
15 7 35 7 43 1 40 10 60 29 60 14 0 20 -7 20 -23z m-3080 -7 c0 -5 -2 -10 -4
-10 -3 0 -8 5 -11 10 -3 6 -1 10 4 10 6 0 11 -4 11 -10z m3628 -13 c2 -10 -3
-26 -12 -36 -11 -13 -13 -20 -5 -28 18 -18 -20 -87 -50 -91 -21 -3 -23 -1 -17
22 3 14 11 38 18 53 6 15 10 38 9 51 -5 45 49 72 57 29z m-3693 -97 c-3 -5
-10 -10 -16 -10 -5 0 -9 5 -9 10 0 6 7 10 16 10 8 0 12 -4 9 -10z m-43 -42
c-7 -7 -12 -8 -12 -2 0 14 12 26 19 19 2 -3 -1 -11 -7 -17z m24 -162 c7 -18
40 -28 86 -26 21 1 43 -2 50 -6 6 -4 21 -8 32 -9 12 -1 45 -5 74 -9 l52 -8 0
-39 c0 -47 -13 -55 -65 -40 -33 9 -40 8 -55 -11 -18 -23 -42 -17 -38 10 2 11
-5 16 -22 17 -22 0 -25 4 -24 33 1 17 -2 32 -7 32 -9 0 -10 -3 -13 -32 0 -7
-13 -14 -28 -16 -16 -2 -30 -11 -33 -23 -10 -30 -31 -17 -27 16 3 23 1 26 -10
17 -24 -19 -41 2 -33 39 4 19 11 42 17 52 11 20 37 23 44 3z m544 -76 c0 -12
7 -20 16 -20 13 0 14 -3 5 -14 -7 -8 -11 -25 -9 -38 3 -24 -1 -28 -31 -28 -17
0 -19 5 -14 35 5 30 3 34 -11 29 -9 -3 -16 -17 -16 -29 0 -22 -4 -24 -42 -21
-24 2 -58 4 -76 4 l-34 2 7 43 c4 23 9 44 11 46 1 1 26 0 53 -4 49 -7 51 -8
52 -38 2 -31 2 -31 6 -4 4 22 9 27 34 27 19 0 29 5 29 15 0 8 5 15 10 15 6 0
10 -9 10 -20z m266 -22 c4 -6 0 -16 -8 -22 -8 -6 -18 -28 -22 -48 -11 -57 -31
-62 -23 -5 4 26 2 49 -3 52 -6 3 -10 13 -10 21 0 17 55 20 66 2z m100 -68 c0
-59 -3 -70 -18 -70 -22 0 -33 19 -19 33 14 14 15 47 1 47 -5 0 -13 -15 -18
-32 -4 -18 -11 -32 -15 -30 -4 1 -15 2 -24 2 -17 0 -20 16 -14 78 2 17 21 15
21 -3 0 -8 5 -15 10 -15 6 0 10 5 10 10 0 6 11 10 24 10 15 0 26 7 29 20 10
37 14 20 13 -50z m63 29 c10 -17 10 -23 0 -29 -7 -5 -10 -19 -6 -39 7 -33 -1
-44 -23 -31 -20 12 -12 120 8 120 4 0 13 -10 21 -21z m-289 -6 c9 -8 -23 -20
-41 -16 -20 6 -24 15 -12 26 6 7 42 0 53 -10z m354 -5 c3 -13 1 -27 -4 -32
-13 -13 -13 -43 0 -51 6 -4 13 7 16 24 8 37 26 54 48 45 23 -9 20 -45 -4 -51
-24 -6 -27 -23 -4 -23 9 0 14 -6 11 -12 -2 -7 -13 -12 -23 -10 -17 3 -57 9
-76 11 -4 1 -5 22 -3 49 2 26 4 53 4 60 2 21 28 13 35 -10z m282 -9 c3 -6 1
-15 -6 -19 -7 -4 -10 -12 -6 -18 3 -6 2 -13 -3 -16 -5 -3 -12 -22 -15 -42 -10
-48 -28 -38 -30 16 -1 59 39 112 60 79z m-152 -15 c22 -9 20 -31 -4 -37 -14
-3 -20 -14 -20 -31 0 -14 -5 -26 -11 -26 -8 0 -10 13 -5 38 3 20 6 43 6 50 0
13 10 15 34 6z m284 -52 c7 -9 12 -11 12 -4 0 7 13 12 30 12 24 0 30 -4 30
-22 0 -20 1 -21 13 -4 10 14 21 16 50 11 22 -4 37 -13 37 -21 0 -8 7 -14 15
-14 8 0 15 7 15 15 0 8 7 15 15 15 8 0 15 -4 15 -8 0 -4 12 -8 28 -7 23 0 27
-4 30 -31 4 -38 -26 -78 -51 -69 -10 4 -17 18 -18 34 0 25 -1 25 -9 4 -7 -16
-16 -21 -37 -20 -25 2 -28 6 -25 31 3 24 1 28 -13 22 -9 -3 -21 -6 -26 -6 -5
0 -9 -5 -9 -11 0 -6 7 -9 15 -5 9 3 15 0 15 -9 0 -24 -45 -18 -58 8 -9 18 -11
19 -11 4 -1 -16 -7 -18 -38 -13 -21 3 -51 5 -67 6 -28 0 -28 0 -22 48 4 29 3
42 -2 34 -5 -8 -13 -12 -17 -10 -5 1 -13 -12 -17 -29 -5 -18 -13 -33 -18 -33
-12 0 -13 24 -4 69 l7 32 51 -6 c28 -4 57 -14 64 -23z m416 -27 c-5 -20 -3
-23 15 -18 24 6 28 -9 6 -27 -11 -9 -12 -17 -5 -30 6 -10 10 -26 10 -34 0 -22
-30 -20 -31 2 0 10 -3 12 -6 5 -2 -7 -11 -13 -19 -13 -12 0 -14 9 -8 45 6 41
5 45 -12 38 -24 -9 -34 -23 -34 -50 0 -14 -6 -23 -16 -23 -12 0 -14 7 -9 33
14 69 15 70 51 64 28 -5 34 -3 34 12 0 21 10 32 21 25 5 -3 6 -16 3 -29z
m-1822 -107 c-2 -22 1 -26 17 -23 11 2 36 -1 56 -6 31 -9 39 -8 51 8 15 20 16
15 15 -37 0 -19 2 -28 6 -20 7 19 43 54 57 56 6 1 18 3 26 5 10 3 16 -5 18
-22 2 -21 7 -26 23 -22 10 3 25 0 32 -6 8 -6 17 -8 20 -5 3 4 14 3 24 -1 29
-12 83 -15 83 -5 0 6 7 10 15 10 8 0 15 -8 15 -17 0 -15 1 -15 13 1 11 15 19
17 40 10 15 -5 27 -13 26 -18 -1 -11 21 -26 39 -26 6 0 12 7 12 15 0 17 18 19
55 5 14 -5 23 -14 20 -20 -3 -5 -2 -17 3 -26 6 -10 12 -13 16 -6 3 5 15 8 26
5 15 -4 20 0 20 16 0 13 6 21 16 21 12 0 15 -7 12 -25 -7 -32 8 -42 22 -15 12
23 30 27 30 6 0 -23 22 -31 32 -12 13 23 27 20 38 -8 7 -18 14 -22 34 -19 18
4 28 0 32 -11 5 -13 10 -14 20 -5 7 6 18 8 24 4 6 -4 17 1 24 11 15 19 36 11
36 -14 0 -14 2 -13 13 3 15 20 42 12 33 -11 -3 -8 -1 -14 4 -14 6 0 10 9 10
20 0 11 7 20 16 20 12 0 14 -10 9 -59 -7 -67 9 -92 19 -30 6 41 7 41 41 36 24
-4 35 -1 39 9 9 22 26 16 37 -13 11 -28 11 -28 20 -5 8 22 24 29 33 14 2 -4 1
-26 -4 -50 -6 -36 -5 -44 11 -52 33 -18 42 -12 35 25 -4 20 -3 35 2 35 5 0 12
9 15 21 10 38 32 16 28 -27 -7 -64 -6 -69 4 -71 6 -2 10 5 11 15 3 48 5 52 27
52 13 0 28 -5 34 -11 8 -8 15 -6 25 10 17 28 24 27 41 -9 13 -25 13 -31 1 -41
-17 -14 -18 -45 -3 -55 18 -11 -7 -27 -31 -19 -19 6 -21 12 -17 39 3 18 1 39
-4 47 -5 8 -9 10 -10 4 -3 -18 -6 -40 -8 -57 -1 -21 -34 -32 -58 -19 -17 9
-100 28 -170 38 -31 5 -33 8 -33 45 0 32 -3 39 -17 36 -11 -2 -19 -14 -21 -31
-4 -29 0 -29 -124 -11 -46 6 -48 8 -48 40 0 43 -12 44 -28 2 -9 -24 -15 -29
-23 -21 -9 9 -18 9 -32 1 -16 -8 -23 -7 -31 4 -6 8 -22 15 -36 14 -22 -1 -25
3 -28 42 -3 42 -17 56 -28 27 -4 -8 -1 -22 6 -30 15 -18 3 -38 -19 -29 -9 3
-45 12 -81 18 l-65 11 -6 45 c-4 33 -6 37 -8 15 -1 -16 -6 -37 -11 -45 -9 -13
-12 -13 -23 1 -9 12 -16 13 -28 6 -25 -16 -49 -1 -50 30 -1 27 -1 27 -8 4 -7
-25 -31 -42 -31 -22 0 7 -10 9 -25 5 -17 -4 -27 -1 -31 10 -5 14 -8 14 -30 0
-22 -15 -24 -15 -30 0 -4 11 -13 15 -26 10 -10 -3 -25 -1 -32 5 -10 8 -18 6
-31 -9 -24 -27 -35 -25 -35 4 0 19 -4 23 -20 19 -12 -3 -20 0 -20 7 0 7 -7 10
-16 6 -9 -4 -22 -2 -29 4 -7 5 -31 11 -54 12 -23 1 -44 5 -47 10 -3 4 -16 8
-30 8 -21 0 -24 5 -25 38 l-2 37 -6 -40 c-4 -26 -11 -40 -21 -40 -20 0 -26 77
-9 117 15 37 45 34 41 -4z m-94 -16 c19 -12 3 -42 -22 -42 -31 0 -50 16 -43
34 7 17 43 21 65 8z m-18 -102 c11 -7 12 -13 3 -32 -17 -34 -24 -86 -13 -93
16 -10 1 -25 -26 -25 -20 0 -24 5 -25 33 -1 17 0 37 1 42 2 6 5 21 8 35 5 26
20 50 31 50 3 0 13 -4 21 -10z m1812 -195 c-7 -14 -12 -50 -12 -80 0 -40 -4
-55 -14 -55 -38 0 -31 132 10 173 16 16 28 -12 16 -38z m53 -7 c6 -20 8 -21
12 -5 5 19 30 17 26 -2 -2 -6 2 -11 7 -11 6 0 10 4 10 9 0 14 37 20 49 8 19
-19 13 -40 -9 -34 -11 3 -23 1 -26 -4 -3 -5 1 -9 9 -9 16 0 27 -21 27 -51 0
-11 4 -18 9 -14 5 3 12 1 16 -5 9 -15 25 -12 25 4 0 8 -7 16 -15 20 -16 6 -20
53 -6 75 13 20 63 6 59 -17 -2 -12 -11 -16 -28 -14 l-25 4 23 -22 c23 -21 28
-55 13 -79 -10 -15 -71 -6 -71 10 0 6 -9 5 -21 -2 -15 -8 -24 -8 -32 0 -6 6
-20 11 -30 11 -11 0 -26 8 -33 18 -8 10 -13 12 -14 5 0 -7 -7 -13 -16 -13 -13
0 -15 6 -10 33 4 17 9 49 13 70 6 41 27 49 38 15z m-1876 3 c10 -7 7 -9 -12
-8 -15 1 -27 5 -27 10 0 10 22 9 39 -2z m1739 -42 c-1 -33 -6 -53 -15 -56 -21
-8 -37 12 -28 34 4 10 7 30 6 46 -2 21 2 27 18 27 17 0 20 -6 19 -51z m-1575
-34 c-4 -38 -2 -55 6 -55 6 0 11 15 11 34 0 33 21 66 41 66 11 0 9 -48 -2 -65
-3 -5 -9 -21 -12 -35 -6 -23 -10 -25 -46 -22 l-40 4 6 47 c12 90 45 115 36 26z
m1963 30 c-3 -8 2 -18 11 -23 14 -8 13 -12 -6 -31 -21 -21 -22 -24 -6 -47 16
-25 16 -25 -12 -22 -27 3 -28 5 -28 56 0 28 3 52 8 52 4 0 7 7 7 15 0 8 7 15
16 15 10 0 14 -6 10 -15z m-1796 -14 c0 -11 31 -23 75 -28 57 -7 80 -10 85
-13 3 -1 12 -2 22 -1 23 3 27 -9 18 -57 -8 -48 5 -68 15 -22 7 30 28 40 40 20
4 -6 14 -10 23 -9 37 3 44 -1 39 -24 -4 -12 -2 -29 3 -37 7 -11 10 -6 10 19 0
32 1 33 30 28 22 -5 30 -3 30 8 0 16 18 19 44 9 17 -6 22 -34 7 -34 -5 0 -7
-9 -4 -20 3 -11 0 -20 -6 -20 -6 0 -16 -11 -21 -25 -9 -24 -30 -35 -30 -16 0
5 -9 7 -20 4 -11 -3 -27 0 -35 7 -8 6 -19 9 -25 5 -6 -4 -16 -2 -23 3 -7 5
-33 13 -59 16 -45 7 -48 9 -49 39 -1 18 -1 40 0 50 2 11 -5 17 -18 17 -17 0
-21 -6 -21 -31 0 -17 4 -28 10 -24 6 3 10 -1 10 -10 0 -21 -27 -30 -45 -15 -8
7 -21 10 -29 7 -7 -3 -18 -1 -24 5 -6 6 -32 11 -59 12 l-48 2 3 59 c1 32 7 64
13 72 13 15 39 18 39 4z m1973 -6 c4 -8 3 -16 -1 -19 -11 -7 -8 -91 3 -94 6
-2 15 14 21 35 9 32 15 37 35 35 36 -5 40 -14 33 -65 -5 -32 -11 -47 -22 -47
-11 0 -13 8 -8 41 7 46 -9 46 -19 -1 -6 -26 -10 -29 -38 -26 -18 2 -42 4 -54
5 -24 1 -33 21 -9 21 17 0 26 42 14 64 -6 11 -5 18 6 22 9 3 16 15 16 25 0 22
15 25 23 4z m-70 -21 c11 -11 -5 -34 -24 -34 -14 0 -19 -7 -19 -30 0 -20 -5
-30 -15 -30 -16 0 -19 19 -9 69 5 26 11 31 34 31 14 0 29 -3 33 -6z m502 -34
c23 -37 -2 -165 -36 -185 -23 -15 -31 12 -13 46 10 20 17 54 16 83 0 27 1 53
4 58 7 11 22 10 29 -2z m-248 -14 c2 -1 -2 -30 -8 -63 -12 -70 -39 -104 -64
-83 -23 19 -19 43 6 37 l21 -6 -21 20 c-25 24 -27 56 -5 88 13 18 22 21 43 16
14 -4 27 -8 28 -9z m348 -5 c3 -6 1 -35 -3 -66 -8 -46 -6 -60 7 -76 14 -18 18
-18 36 -5 18 13 19 18 8 46 -9 25 -9 32 2 36 7 3 16 16 19 30 4 13 13 24 21
24 13 0 15 -14 13 -77 -3 -64 0 -78 12 -78 9 0 14 8 13 20 -6 46 6 65 40 65
18 0 39 -6 46 -12 10 -11 16 -8 30 11 20 26 51 24 51 -4 0 -8 5 -15 10 -15 18
0 11 -29 -10 -40 -25 -13 -26 -39 -2 -56 24 -18 2 -39 -32 -30 -23 6 -26 12
-26 49 0 75 -32 94 -34 20 -1 -47 -36 -71 -70 -47 -11 8 -33 14 -49 14 -16 0
-38 5 -50 12 -12 7 -34 11 -48 9 -33 -3 -44 29 -30 88 5 23 5 43 -1 49 -13 13
2 42 22 42 11 0 21 -4 25 -9z m-185 -12 c0 -7 7 -17 17 -24 11 -8 13 -17 7
-26 -5 -8 -7 -22 -6 -32 2 -11 -6 -21 -23 -27 -36 -14 -45 -13 -45 6 0 8 -5
12 -10 9 -13 -8 -24 21 -14 37 5 7 7 21 6 31 -2 11 3 17 17 17 12 0 21 5 21
10 0 6 7 10 15 10 8 0 15 -5 15 -11z m-2498 -60 c-2 -13 -4 -46 -6 -74 -2 -41
-6 -50 -21 -50 -14 0 -21 10 -27 39 -5 25 -5 43 2 50 5 5 10 17 10 26 0 20 21
42 35 37 5 -2 9 -15 7 -28z m730 -15 c51 -12 73 -13 81 -5 14 14 44 14 53 -1
4 -6 0 -16 -9 -23 -11 -7 -13 -16 -6 -26 14 -22 11 -57 -7 -67 -10 -5 -34 -2
-67 9 -29 10 -60 16 -69 13 -21 -6 -42 29 -33 56 4 12 2 20 -5 20 -6 0 -13 -7
-15 -15 -3 -8 -7 -23 -10 -32 -11 -34 -27 4 -20 46 8 47 8 47 107 25z m178
-28 c0 -8 6 -16 13 -19 8 -3 6 -10 -8 -26 -16 -18 -17 -25 -7 -42 10 -16 10
-20 -2 -25 -24 -9 -38 6 -33 35 3 14 1 34 -4 43 -6 12 -6 18 1 18 5 0 10 7 10
15 0 8 7 15 15 15 8 0 15 -6 15 -14z m134 -68 c-4 -46 -2 -59 5 -48 6 8 11 25
11 38 0 17 6 22 25 22 13 0 28 -6 32 -12 4 -7 22 -13 38 -13 l30 0 -4 -55 c-3
-61 -14 -80 -43 -80 -15 0 -19 6 -16 28 2 21 -1 28 -18 30 -16 2 -21 9 -18 25
4 20 4 20 -6 -2 -7 -15 -15 -21 -26 -17 -9 3 -21 6 -27 6 -7 0 -18 4 -25 9
-11 7 -11 12 -1 28 17 28 6 53 -20 46 -14 -3 -21 -14 -21 -29 0 -21 -16 -41
-26 -32 -2 3 -1 26 2 51 6 40 10 47 28 47 12 0 27 -5 33 -11 8 -8 14 -5 22 10
21 38 30 22 25 -41z m211 5 c-19 -46 -26 -87 -20 -114 6 -25 4 -29 -14 -29
-19 0 -21 6 -21 50 0 57 22 110 46 110 11 0 14 -5 9 -17z m73 -40 c9 -23 11
-24 11 -7 1 28 11 36 28 23 7 -6 13 -8 13 -4 0 4 6 3 13 -3 6 -5 33 -13 59
-16 37 -6 47 -11 50 -28 4 -26 28 -37 28 -12 0 14 7 16 47 10 57 -7 64 -13 39
-32 -12 -8 -22 -31 -25 -56 -3 -23 -12 -43 -19 -46 -11 -3 -12 7 -7 52 9 71
-8 75 -26 6 -7 -27 -15 -50 -18 -50 -3 0 -16 3 -28 6 -20 6 -23 13 -23 60 0
65 -15 71 -24 9 -7 -44 -20 -64 -30 -46 -3 5 -2 30 3 55 7 41 6 48 -10 57 -16
8 -19 6 -19 -10 0 -16 -5 -19 -30 -16 -22 3 -30 0 -30 -13 0 -28 -24 -82 -36
-82 -31 0 -46 33 -40 83 9 78 54 114 74 60z m-1160 -133 c-2 -49 -5 -60 -20
-60 -20 0 -36 22 -20 28 7 2 12 13 12 25 0 33 11 67 21 67 5 0 8 -27 7 -60z
m67 40 c3 -5 -1 -25 -9 -45 -9 -20 -15 -41 -13 -47 1 -6 -3 -12 -10 -15 -17
-6 -21 67 -4 95 14 24 26 28 36 12z m1405 -8 c0 -11 8 -18 20 -19 11 -1 20 4
20 13 0 8 5 14 11 14 7 0 9 -9 6 -21 -5 -19 -4 -20 12 -5 30 27 48 19 56 -24
3 -16 -2 -20 -21 -20 -15 0 -24 -6 -24 -15 0 -8 9 -15 20 -15 11 0 20 -4 20
-10 0 -5 -4 -10 -9 -10 -5 0 -16 -3 -24 -6 -16 -6 -32 26 -29 61 1 14 -2 12
-10 -8 -9 -21 -17 -26 -37 -24 -24 3 -26 8 -29 55 -2 32 1 52 7 52 6 0 11 -8
11 -18z m-1306 -39 c-4 -21 -8 -54 -8 -73 -1 -25 -6 -36 -18 -38 -15 -3 -18 4
-18 41 0 56 18 107 37 107 12 0 14 -7 7 -37z m65 13 c7 -8 26 -18 43 -21 18
-4 32 -15 36 -27 3 -14 7 -16 13 -7 11 18 84 0 84 -21 0 -23 17 -35 54 -37 18
-1 39 -7 45 -12 7 -6 21 -10 31 -9 11 0 28 -3 38 -7 10 -4 17 -3 17 4 0 6 7
11 15 11 8 0 15 -7 15 -15 0 -18 14 -19 39 -3 10 6 26 8 35 5 22 -9 20 -37 -3
-37 -19 0 -31 -18 -31 -46 0 -8 10 -14 22 -14 12 0 18 3 15 6 -3 4 -2 15 4 25
10 20 44 26 54 9 4 -6 10 -8 14 -6 13 9 112 -25 118 -40 4 -10 9 -12 18 -4 17
14 43 3 51 -22 5 -18 7 -18 18 -2 10 14 16 14 34 5 18 -10 20 -15 12 -31 -14
-26 -3 -25 19 1 15 18 21 20 39 10 18 -10 22 -9 22 4 0 28 30 16 31 -12 0 -28
1 -28 11 -5 6 12 17 22 25 22 16 0 17 4 -6 -59 -22 -65 -46 -83 -55 -45 -4 14
-4 34 -1 45 4 11 2 19 -4 19 -6 0 -12 -8 -13 -17 0 -10 -2 -24 -2 -31 -1 -8
-9 -18 -18 -23 -13 -7 -21 -4 -34 16 -11 17 -19 22 -24 15 -4 -7 -16 -10 -26
-8 -15 3 -18 11 -16 37 1 20 -2 30 -8 26 -5 -3 -10 -13 -10 -20 0 -21 -34 -37
-48 -23 -7 7 -12 19 -13 28 0 10 -2 11 -6 3 -2 -7 -9 -13 -15 -13 -6 0 -16 -7
-23 -17 -15 -20 -35 -10 -29 15 4 14 -5 20 -43 30 -26 7 -56 17 -65 23 -10 5
-24 6 -32 3 -20 -8 -50 39 -41 66 4 12 2 20 -5 20 -16 0 -24 -28 -11 -44 14
-17 5 -25 -21 -18 -17 4 -19 11 -15 38 4 26 3 32 -9 27 -9 -3 -12 -13 -9 -24
8 -23 -20 -38 -38 -20 -6 6 -23 11 -39 11 -15 0 -31 6 -35 13 -4 6 -19 12 -33
12 -23 0 -26 5 -31 50 -4 32 -6 39 -8 20 -1 -16 -5 -36 -10 -44 -15 -23 -30
-2 -26 37 l5 37 -11 -37 c-11 -39 -22 -45 -48 -29 -10 6 -14 25 -13 53 1 32
-1 38 -8 23 -5 -11 -9 -30 -9 -43 -1 -14 -6 -22 -13 -19 -9 2 -12 20 -10 49 2
25 -1 49 -7 52 -13 8 -25 -55 -16 -83 5 -18 2 -21 -20 -21 -23 0 -26 3 -22 23
3 12 9 45 13 72 9 70 19 81 43 51z m1505 0 c-3 -7 3 -16 12 -20 15 -6 15 -9
-7 -32 -20 -21 -21 -28 -11 -44 16 -27 15 -30 -9 -30 -20 0 -21 4 -17 45 3 25
1 46 -5 48 -13 4 14 47 30 47 7 0 10 -6 7 -14z m-66 -13 c13 -26 4 -43 -24
-43 -17 0 -22 -4 -18 -15 4 -9 12 -14 19 -13 8 2 15 -1 17 -7 2 -5 -7 -11 -19
-13 -16 -2 -26 4 -34 22 -24 52 34 118 59 69z m165 5 c12 -10 14 -17 6 -28 -8
-12 -12 -12 -16 -2 -4 10 -8 10 -19 1 -19 -15 -18 -68 1 -75 22 -9 18 -34 -4
-34 -37 0 -50 57 -25 112 18 40 30 46 57 26z m81 -63 c3 -8 4 -21 2 -27 -3 -7
-7 -25 -10 -40 -11 -48 -66 -31 -66 20 0 13 5 32 10 43 13 23 55 25 64 4z m88
-11 c13 -8 -3 -33 -18 -27 -10 4 -14 -3 -14 -27 0 -18 4 -29 10 -25 6 3 10 -1
10 -9 0 -12 -7 -14 -32 -9 -18 3 -34 7 -36 8 -2 2 0 26 4 54 7 52 7 52 38 45
17 -3 34 -8 38 -10z m68 -14 c14 0 20 -47 9 -79 -7 -19 -18 -31 -29 -31 -10 0
-21 -8 -24 -17 -4 -10 -10 -13 -16 -7 -7 7 -6 31 1 70 13 70 16 77 36 70 8 -3
18 -6 23 -6z m-2078 -15 c3 -3 0 -22 -7 -43 -7 -20 -11 -51 -9 -68 3 -22 -1
-34 -11 -38 -28 -10 -48 77 -23 102 7 7 9 12 5 12 -4 0 -3 9 3 20 10 19 31 26
42 15z m2177 -11 c6 -5 3 -61 -4 -84 -4 -13 -15 -20 -30 -20 -41 0 -50 40 -22
98 8 16 16 21 31 16 12 -4 23 -8 25 -10z m90 -20 c9 -8 -12 -22 -26 -17 -18 7
-12 -7 14 -38 22 -26 6 -51 -30 -47 -17 2 -33 9 -35 17 -3 10 1 12 17 8 24 -6
26 1 7 28 -20 30 -3 69 26 59 13 -3 25 -8 27 -10z m141 -34 c0 -47 16 -53 25
-10 7 32 19 45 34 35 9 -5 -32 -121 -50 -139 -17 -18 -27 8 -31 82 -3 54 0 72
9 72 8 0 13 -14 13 -40z m-55 10 c3 -5 8 -19 10 -30 3 -16 -2 -20 -26 -20 -36
0 -38 -17 -3 -30 28 -11 24 -30 -6 -30 -24 0 -50 26 -50 50 0 40 19 70 44 70
14 0 28 -4 31 -10z m187 -5 c0 -5 -5 -11 -11 -13 -6 -2 -11 4 -11 13 0 9 5 15
11 13 6 -2 11 -8 11 -13z m-14 -34 c15 -9 15 -13 1 -50 -7 -18 -5 -29 8 -43
17 -19 16 -19 -22 -16 -36 3 -65 28 -32 28 17 0 30 51 16 65 -21 22 1 34 29
16z m106 -27 c9 -8 16 -25 16 -36 0 -17 -4 -20 -30 -14 -39 7 -42 -20 -3 -35
17 -6 23 -13 16 -20 -14 -14 -60 5 -67 28 -12 38 12 93 40 93 7 0 20 -7 28
-16z m210 0 c9 -3 16 -15 16 -25 0 -20 -15 -26 -25 -9 -20 32 -50 -17 -40 -67
5 -29 9 -33 26 -28 17 6 20 3 17 -12 -5 -23 -47 -20 -66 5 -16 21 -10 83 12
117 17 25 31 30 60 19z m-164 -24 c0 -30 42 -44 54 -19 8 17 26 27 26 13 0
-18 -34 -104 -41 -104 -4 0 -13 8 -18 18 -6 9 -11 11 -11 5 0 -7 -7 -13 -15
-13 -12 0 -15 13 -15 60 0 33 4 60 10 60 6 0 10 -9 10 -20z m-1445 -87 c-5
-66 -5 -67 10 -36 8 17 19 34 24 37 13 9 63 -15 79 -37 13 -18 14 -18 28 0 7
10 14 14 14 9 0 -5 9 -1 19 8 25 23 55 17 59 -12 3 -18 -1 -22 -20 -20 -20 3
-23 -1 -23 -31 0 -45 29 -52 44 -10 7 22 16 29 36 29 31 0 39 -18 31 -64 -8
-42 -35 -55 -57 -27 -12 14 -19 17 -27 9 -16 -16 -41 -2 -54 29 -9 23 -12 25
-15 10 -4 -14 -11 -17 -26 -13 -12 3 -25 6 -29 6 -5 0 -8 14 -8 31 0 16 -4 28
-9 25 -5 -3 -7 -14 -4 -25 7 -25 -34 -36 -49 -12 -7 11 -20 16 -37 14 -14 -2
-33 1 -41 6 -13 9 -12 12 4 24 15 11 18 21 13 45 -4 18 -3 32 2 32 5 0 11 9
14 20 3 11 10 20 16 20 7 0 9 -24 6 -67z m1699 51 c19 -7 22 -74 6 -105 -12
-21 -50 -25 -68 -7 -16 16 -15 73 0 98 13 20 34 25 62 14z m206 -29 c0 -7 7
-16 16 -19 21 -8 12 -31 -12 -31 -29 0 -31 -44 -2 -66 20 -16 21 -19 6 -24
-38 -15 -53 -2 -54 46 0 25 -4 51 -8 58 -5 7 1 22 14 36 23 25 40 25 40 0z
m-88 -8 c17 -27 1 -112 -22 -112 -11 0 -14 12 -11 49 2 45 1 49 -13 37 -9 -8
-16 -26 -16 -42 0 -20 -5 -29 -16 -29 -13 0 -15 8 -9 43 12 77 14 80 48 73 17
-4 35 -12 39 -19z m-2851 -56 c10 -12 24 -18 35 -15 29 8 77 -13 71 -30 -7
-17 18 -41 31 -32 12 7 72 -13 72 -25 0 -4 6 -6 14 -3 8 3 24 0 35 -6 17 -9
22 -8 27 4 3 8 12 12 20 9 8 -3 12 -9 9 -13 -9 -14 16 -23 28 -11 16 16 44 13
51 -5 8 -21 -1 -35 -18 -28 -7 3 -15 -3 -18 -13 -7 -25 1 -43 18 -43 8 0 14 6
14 13 1 35 15 37 98 12 45 -14 85 -31 89 -38 4 -6 19 -12 33 -12 27 0 37 -26
26 -71 -7 -27 -43 -33 -52 -9 -7 18 -43 10 -60 -13 -9 -13 -12 -13 -17 2 -4
10 -5 21 -2 25 6 11 -73 41 -91 34 -7 -3 -17 2 -20 11 -4 10 -13 14 -24 11
-10 -3 -25 1 -33 10 -9 8 -25 15 -36 15 -17 0 -21 6 -21 36 0 21 -4 33 -10 29
-5 -3 -10 -15 -10 -26 0 -27 -28 -36 -44 -14 -8 11 -18 15 -25 11 -7 -5 -20
-1 -29 7 -9 8 -28 17 -42 19 -21 3 -26 10 -31 48 -3 25 -7 34 -8 20 -1 -14 -5
-31 -10 -39 -14 -22 -28 -5 -25 31 3 28 2 29 -4 8 -5 -17 -16 -26 -35 -28 -25
-3 -27 -1 -28 35 -1 38 -1 38 -12 11 -19 -49 -33 -33 -33 37 0 64 0 65 25 60
14 -2 33 -13 42 -24z m3082 12 c14 -8 7 -23 -12 -23 -25 0 -44 -24 -45 -58 -1
-18 -7 -28 -20 -30 -17 -4 -18 1 -11 55 4 32 9 62 12 66 5 8 58 1 76 -10z
m196 4 c8 -10 8 -31 0 -76 -10 -53 -9 -64 5 -80 9 -10 16 -21 16 -24 0 -12
-36 -7 -55 7 -17 13 -18 19 -9 77 8 43 8 66 1 70 -14 9 -1 39 16 39 8 0 20 -6
26 -13z m-101 -29 c15 -15 16 -72 2 -99 -12 -21 -74 -27 -86 -8 -11 18 -7 70
7 96 14 25 57 31 77 11z m225 -2 c3 -8 0 -39 -7 -70 -11 -46 -11 -59 0 -73 20
-27 17 -35 -13 -31 -28 3 -28 4 -28 75 0 39 -3 74 -7 78 -4 4 -4 13 -1 21 7
18 49 18 56 0z m-1923 -35 c0 -11 6 -22 13 -25 9 -3 7 -9 -5 -19 -21 -16 -23
-48 -6 -65 9 -9 8 -12 -7 -12 -11 0 -24 4 -30 8 -12 8 -14 102 -3 102 5 0 8 7
8 15 0 8 7 15 15 15 8 0 15 -9 15 -19z m-65 -1 c12 -19 -6 -100 -22 -100 -12
0 -14 8 -9 35 4 22 3 35 -4 35 -5 0 -10 -8 -10 -17 0 -23 -17 -49 -25 -41 -4
3 -3 27 0 52 7 42 10 46 36 46 15 0 31 -5 34 -10z m168 -47 c4 -2 5 -8 3 -12
-3 -4 10 -5 28 -3 39 5 50 -13 40 -64 -7 -41 -17 -48 -50 -40 -20 5 -24 12
-24 46 0 22 -4 40 -10 40 -5 0 -13 1 -17 3 -4 1 -10 -11 -13 -27 -6 -37 -30
-47 -30 -13 0 13 3 39 6 56 6 27 9 30 33 25 14 -4 29 -9 34 -11z m142 4 c3 -7
1 -35 -4 -62 -6 -31 -6 -54 0 -59 12 -13 12 -36 0 -36 -28 0 -39 31 -36 97 2
38 4 69 4 71 2 8 32 0 36 -11z m1803 5 c7 -5 14 -22 15 -38 2 -28 0 -29 -35
-27 -47 3 -53 -23 -8 -34 41 -11 42 -27 3 -31 -47 -5 -77 28 -68 76 9 53 53
79 93 54z m210 -34 c-3 -30 -8 -43 -18 -43 -19 0 -26 51 -9 71 21 25 31 15 27
-28z m-1936 -50 c-2 -39 1 -69 7 -73 19 -11 12 -26 -11 -23 -22 3 -23 8 -24
86 -2 72 0 83 15 80 13 -3 15 -15 13 -70z m1990 60 c8 -22 -7 -63 -22 -63 -16
0 -25 37 -16 61 7 17 32 19 38 2z m120 -23 c22 -75 -20 -195 -68 -195 -34 0
-40 23 -15 63 16 26 21 51 21 101 0 67 0 67 27 64 20 -2 29 -11 35 -33z m-254
19 c36 -10 26 -42 -12 -35 -18 4 -36 -23 -36 -55 0 -27 -4 -34 -20 -34 -23 0
-24 10 -8 79 12 54 21 59 76 45z m368 -12 c17 -11 26 -48 26 -102 -1 -63 -40
-130 -77 -130 -36 0 -38 13 -11 71 20 42 24 62 19 102 -4 36 -2 51 8 58 17 11
21 11 35 1z m-2123 -111 c-2 -30 -5 -56 -8 -59 -3 -3 -18 -1 -33 4 -22 8 -28
16 -30 47 -4 46 13 69 47 65 25 -3 26 -6 24 -57z m81 29 c34 -12 34 -40 1 -40
-21 0 -25 -5 -25 -30 0 -20 -5 -30 -15 -30 -16 0 -18 15 -9 73 7 40 10 42 48
27z m-1279 -50 c4 -6 2 -17 -5 -25 -6 -8 -7 -16 -2 -19 6 -3 12 4 15 15 5 18
11 21 36 16 21 -4 31 -2 35 9 8 21 26 8 26 -19 0 -20 1 -20 13 -2 24 32 38 9
20 -33 -8 -20 -19 -47 -24 -59 -10 -26 -39 -21 -37 5 3 35 -2 53 -12 47 -6 -4
-8 -15 -5 -25 3 -10 1 -21 -5 -25 -16 -10 -50 5 -50 22 0 10 -5 13 -17 8 -30
-11 -35 -11 -46 9 -9 13 -9 20 -1 23 6 2 8 17 6 33 -4 27 -1 30 21 30 14 0 29
-5 32 -10z m1459 0 c31 -11 25 -41 -7 -37 -30 3 -35 -31 -6 -42 28 -10 49 7
49 38 0 17 6 21 30 21 40 0 51 -24 39 -81 -9 -43 -11 -45 -40 -41 -16 2 -36
13 -43 24 -10 14 -15 16 -18 6 -4 -10 -12 -11 -34 -3 -23 8 -30 17 -32 44 -3
34 14 81 29 81 4 0 19 -4 33 -10z m-1260 -49 c-13 -9 -16 -89 -4 -96 6 -3 10
4 10 18 0 39 22 51 65 36 19 -7 35 -19 35 -27 0 -18 47 -8 72 15 14 13 20 13
33 3 21 -17 20 -44 -2 -36 -20 8 -33 -10 -33 -48 0 -21 4 -27 15 -22 10 4 15
-1 15 -14 0 -11 -4 -20 -9 -20 -23 0 -41 14 -41 30 0 11 -4 22 -10 25 -5 3
-10 -1 -10 -9 0 -18 -4 -19 -37 -10 -17 5 -23 14 -24 38 -2 30 -2 30 -6 4 -5
-30 -30 -37 -52 -15 -6 6 -16 13 -21 13 -6 1 -16 2 -22 3 -7 1 -19 5 -27 10
-12 8 -12 12 3 26 9 9 14 25 11 34 -3 10 2 32 11 51 15 29 18 30 27 15 5 -10
5 -20 1 -24z m1560 4 c11 -8 16 -21 13 -30 -7 -17 -37 -21 -37 -4 0 5 -5 7
-10 4 -6 -4 1 -18 16 -35 l27 -28 18 21 c14 18 21 20 45 11 28 -9 29 -13 26
-64 -2 -30 -4 -55 -5 -56 -1 -1 -13 -4 -26 -6 -19 -2 -30 5 -47 29 -15 22 -24
28 -27 19 -10 -25 -45 -25 -71 -1 -14 13 -27 21 -30 18 -3 -3 -12 -3 -20 0
-11 4 -12 14 -6 42 6 26 5 35 -3 32 -7 -2 -14 -16 -17 -32 -3 -16 -11 -30 -19
-33 -11 -4 -13 5 -7 49 9 66 16 74 53 62 25 -9 28 -14 27 -55 0 -35 3 -45 13
-41 8 3 20 -2 27 -12 8 -12 15 -14 20 -7 3 6 -5 22 -19 36 -28 28 -31 47 -13
76 15 23 45 25 72 5z m-2529 -45 c8 -14 -47 -116 -60 -110 -12 6 -10 18 15 75
19 44 33 55 45 35z m39 -75 c-16 -44 -37 -65 -50 -52 -4 3 6 32 20 63 19 42
30 54 37 47 8 -8 6 -24 -7 -58z m2808 42 c7 -7 38 -20 68 -29 46 -13 55 -19
53 -37 -2 -11 2 -21 7 -21 6 0 10 -7 10 -15 0 -24 32 -36 46 -17 11 14 16 15
33 5 12 -7 30 -13 42 -13 29 0 59 -18 59 -35 0 -17 16 -20 25 -5 9 15 48 12
71 -5 25 -19 64 -19 64 -1 0 8 5 18 10 21 13 8 42 -14 35 -25 -2 -4 4 -15 15
-25 15 -14 17 -21 9 -32 -6 -7 -18 -13 -25 -13 -19 0 -18 -46 1 -54 19 -7 20
-36 1 -36 -8 0 -27 5 -42 10 -24 10 -26 14 -22 55 6 53 -9 75 -28 40 -7 -14
-11 -34 -9 -44 8 -40 -56 -35 -92 8 -13 14 -23 20 -23 14 0 -21 -58 -15 -80 7
-11 11 -20 25 -20 32 0 8 -5 7 -16 -3 -13 -14 -21 -14 -52 -4 -20 7 -38 18
-38 24 -1 6 -2 34 -3 61 -2 72 -26 68 -36 -6 -5 -44 -10 -54 -23 -52 -14 3
-17 14 -14 65 2 38 -2 64 -9 68 -15 10 -29 -13 -29 -47 0 -46 -10 -58 -46 -58
-29 0 -36 5 -48 33 -9 19 -15 25 -15 15 -1 -11 -9 -18 -22 -18 -18 0 -20 4
-13 46 5 34 4 45 -5 40 -6 -4 -11 -17 -11 -29 0 -30 -15 -51 -29 -43 -12 8 -5
104 8 118 11 12 81 -12 81 -27 0 -17 16 -20 25 -5 4 6 15 8 26 5 14 -5 20 0
25 19 7 29 16 32 36 13z m-1592 -46 c13 -26 2 -79 -21 -92 -15 -7 -22 -4 -35
15 -13 21 -14 31 -4 61 13 40 43 48 60 16z m-1098 -31 c-4 -24 -3 -24 12 -5
13 18 17 18 37 6 17 -10 24 -10 27 -2 6 18 29 13 35 -9 5 -20 27 -28 27 -10 0
6 6 10 14 10 18 0 30 -48 16 -65 -14 -17 -3 -58 13 -52 7 2 11 18 11 36 -1 17
2 31 6 31 4 0 10 9 13 21 11 42 25 8 20 -49 -3 -42 -2 -53 6 -42 6 8 11 23 11
33 0 21 23 22 44 1 9 -8 20 -13 26 -9 5 3 19 1 30 -5 17 -9 19 -17 14 -58 -4
-26 -14 -55 -24 -65 -16 -18 -18 -18 -34 -1 -11 10 -14 19 -7 23 10 6 0 33
-13 32 -3 0 -11 2 -18 4 -7 3 -40 13 -73 24 -60 18 -60 18 -63 60 -2 28 -8 41
-18 41 -16 0 -19 -36 -4 -45 17 -10 2 -24 -21 -18 -15 4 -20 12 -17 34 1 16
-2 27 -7 26 -6 -1 -9 -9 -8 -19 3 -24 -24 -30 -39 -9 -7 10 -24 18 -38 17 -22
-1 -25 3 -26 39 -2 50 2 57 29 53 17 -2 21 -9 19 -28z m1152 20 c19 -7 26 -17
26 -37 0 -73 -29 -101 -31 -30 l-1 42 -12 -40 c-8 -28 -14 -36 -20 -27 -7 12
0 102 9 102 2 0 15 -4 29 -10z m86 -9 c0 -11 6 -22 13 -25 9 -3 7 -9 -5 -19
-20 -16 -24 -52 -8 -62 17 -10 2 -24 -20 -18 -38 10 -27 143 12 143 5 0 8 -9
8 -19z m110 -59 c3 -4 16 -8 29 -10 32 -3 34 -6 33 -42 -1 -46 -12 -70 -31
-70 -26 0 -41 20 -41 56 0 20 -6 34 -16 38 -23 9 -24 8 -24 -24 0 -21 -5 -30
-16 -30 -14 0 -15 7 -10 38 3 20 6 43 6 51 0 10 8 12 32 7 18 -3 34 -10 38
-14z m128 -49 c-1 -38 1 -76 6 -86 7 -16 5 -18 -15 -15 -23 3 -24 7 -25 86 -2
75 0 82 18 82 17 0 19 -7 16 -67z m-1661 27 c-4 -17 -2 -30 3 -30 6 0 10 5 10
10 0 6 7 10 15 10 8 0 15 -6 15 -13 0 -20 34 -44 74 -51 20 -4 39 -13 42 -21
3 -8 12 -11 19 -9 7 3 23 1 34 -6 14 -7 21 -7 21 0 0 17 27 11 34 -7 5 -11 10
-13 14 -7 5 8 17 7 40 -3 27 -11 32 -17 27 -35 -5 -14 -4 -18 4 -14 6 4 11 14
11 22 0 8 7 14 16 14 14 0 16 -9 11 -57 -3 -32 -2 -47 2 -33 4 14 15 26 25 28
24 5 66 -17 66 -35 0 -18 7 -17 47 8 31 20 36 20 50 6 18 -18 10 -52 -11 -44
-9 4 -16 -3 -20 -15 -11 -42 18 -53 36 -13 13 28 30 32 48 10 7 -8 21 -15 31
-15 11 0 29 -6 40 -12 17 -10 23 -10 26 0 3 6 10 12 18 12 16 0 29 -61 14 -71
-7 -4 -9 -18 -4 -38 5 -24 3 -31 -8 -31 -23 0 -38 26 -31 54 4 16 2 26 -5 26
-6 0 -11 -11 -11 -25 0 -16 -6 -25 -15 -25 -8 0 -15 5 -15 11 0 5 -5 7 -10 4
-6 -4 -17 -1 -25 5 -8 6 -19 9 -25 5 -7 -4 -18 3 -27 14 -11 17 -18 19 -28 11
-10 -8 -17 -6 -29 11 -8 12 -28 24 -43 25 -15 2 -29 8 -31 13 -2 5 -10 7 -18
4 -8 -3 -22 1 -32 9 -9 9 -29 18 -44 22 -26 6 -41 36 -18 36 6 0 10 11 10 25
0 35 -16 31 -29 -6 -15 -42 -35 -32 -39 20 -2 27 -7 41 -15 38 -12 -4 -13 -17
-6 -47 3 -10 -3 -15 -16 -15 -15 0 -22 9 -26 35 -4 22 -7 27 -8 12 -1 -30 -30
-41 -47 -17 -7 10 -20 15 -28 12 -9 -4 -21 2 -29 13 -8 11 -16 17 -20 14 -3
-3 -16 0 -29 7 -23 13 -29 15 -48 18 -5 0 -10 22 -10 47 0 27 -4 43 -10 39 -5
-3 -10 -21 -10 -39 0 -38 -8 -50 -25 -36 -8 7 -9 26 -4 62 4 29 8 61 8 71 1
10 9 17 22 17 19 0 21 -4 16 -30z m1742 -57 c-2 -38 1 -76 5 -85 6 -13 4 -18
-7 -18 -27 0 -36 26 -34 98 2 62 4 72 20 72 16 0 18 -8 16 -67z m1785 34 c16
-12 16 -17 2 -87 -9 -41 -16 -85 -16 -98 0 -27 -20 -37 -55 -28 -32 8 -42 31
-24 53 21 24 39 114 28 136 -6 9 -7 22 -4 27 9 14 48 12 69 -3z m112 -42 c37
-57 -4 -205 -57 -205 -30 0 -33 25 -8 69 18 33 21 49 16 95 -5 52 -1 62 25 65
4 1 15 -10 24 -24z m-2980 -1 c0 -5 5 -18 9 -28 6 -13 5 -21 -3 -24 -14 -4
-16 -52 -3 -52 12 0 21 25 21 58 0 15 4 34 10 42 7 12 10 11 16 -5 23 -68 38
-89 46 -65 2 5 14 7 27 3 21 -5 23 -10 17 -51 -7 -55 -24 -70 -48 -41 -10 11
-22 17 -28 14 -7 -4 -14 2 -17 15 -4 17 -8 19 -15 8 -8 -10 -11 -10 -15 0 -2
6 -9 10 -14 6 -5 -3 -17 -3 -27 0 -13 5 -17 17 -17 56 0 27 3 50 8 50 4 0 7 7
7 16 0 16 24 15 26 -2z m1180 -16 c3 -5 3 -31 -1 -58 -5 -40 -11 -50 -25 -50
-22 0 -50 36 -50 65 0 33 27 64 50 58 11 -3 23 -10 26 -15z m102 -47 c-2 -9
-12 -15 -25 -14 -16 2 -22 -5 -27 -27 -3 -18 -12 -30 -21 -30 -11 0 -15 6 -11
18 3 9 8 31 12 47 10 44 12 45 45 33 20 -7 29 -16 27 -27z m152 -31 c13 -25
26 -25 47 -1 19 23 43 17 43 -10 0 -11 8 -22 18 -26 9 -3 24 -15 34 -26 14
-18 18 -19 32 -7 13 10 20 10 28 2 7 -7 23 -12 35 -12 13 0 35 -12 48 -26 14
-15 25 -22 25 -15 0 16 26 14 66 -5 33 -16 36 -16 48 1 16 23 46 13 46 -15 0
-24 9 -26 25 -3 18 24 45 9 45 -24 l0 -28 18 23 c31 40 68 9 42 -36 -6 -9 -19
-38 -30 -64 -31 -76 -70 -59 -70 29 0 29 -4 53 -10 53 -5 0 -10 -4 -10 -10 0
-5 -7 -10 -15 -10 -17 0 -20 -25 -5 -35 15 -9 12 -45 -3 -45 -7 0 -23 7 -35
16 -19 13 -21 21 -16 55 4 24 3 39 -4 39 -12 0 -22 -24 -22 -50 0 -10 -10 -22
-22 -26 -17 -5 -28 1 -50 25 -15 17 -28 26 -28 21 0 -20 -64 -6 -74 16 -6 14
-18 20 -40 20 -56 0 -66 9 -66 59 0 25 -4 45 -9 45 -18 0 -23 -22 -10 -46 15
-29 8 -38 -26 -30 -22 6 -25 12 -25 51 0 25 -4 45 -10 45 -5 0 -9 -10 -7 -21
1 -16 -6 -24 -25 -31 -38 -13 -70 19 -64 64 3 18 5 37 5 42 1 4 8 6 16 3 8 -4
17 -2 20 3 10 16 23 12 35 -10z m-1167 -55 c-3 -44 -2 -65 6 -65 6 0 11 9 11
19 0 48 25 65 52 37 19 -18 11 -96 -9 -96 -11 0 -12 8 -7 36 5 27 4 35 -5 30
-6 -4 -11 -15 -11 -25 0 -27 -9 -30 -43 -19 -45 15 -52 24 -33 43 18 19 19 24
6 45 -6 9 -5 17 3 22 7 4 13 12 13 18 2 18 4 20 13 20 6 0 7 -27 4 -65z m143
-60 c-1 -76 -1 -76 -26 -70 -32 8 -37 14 -21 24 9 6 12 21 9 45 -2 20 -1 36 3
36 4 0 11 9 14 20 13 41 22 18 21 -55z m64 16 c0 -11 6 -22 13 -25 9 -3 7 -9
-5 -19 -21 -16 -23 -38 -6 -55 16 -16 4 -25 -22 -17 -18 6 -21 13 -19 45 2 22
0 42 -4 46 -8 8 21 44 35 44 4 0 8 -9 8 -19z m80 -57 c-5 -21 -10 -47 -10 -56
0 -30 20 -20 27 12 7 36 13 41 42 33 20 -5 22 -11 19 -57 -3 -56 -24 -72 -56
-43 -9 9 -29 19 -45 22 -36 9 -43 23 -21 40 16 11 16 17 6 39 -7 16 -8 26 -2
26 6 0 15 12 21 28 16 41 30 7 19 -44z m-1020 48 c0 -11 -39 -118 -41 -112 -6
25 -3 97 5 107 12 14 36 17 36 5z m53 -24 c-4 -7 -7 -35 -8 -63 0 -48 -2 -51
-35 -46 -13 1 -13 48 0 56 5 3 7 12 3 20 -3 8 0 15 6 15 6 0 11 7 11 15 0 8 7
15 16 15 9 0 12 -5 7 -12z m1105 -17 c11 -6 11 -20 4 -61 -7 -38 -7 -59 1 -71
13 -22 6 -32 -17 -23 -14 6 -22 33 -16 59 1 6 2 31 2 58 0 48 3 53 26 38z
m1421 -24 c8 -10 8 -30 0 -71 -11 -64 -7 -110 6 -61 12 48 32 65 63 55 67 -20
92 -33 92 -46 0 -16 71 -14 92 3 30 24 54 23 78 -2 20 -21 22 -29 13 -43 -6
-9 -15 -16 -20 -15 -4 1 -15 3 -23 5 -11 2 -16 -7 -18 -34 -3 -34 -1 -38 20
-38 16 0 28 10 38 33 13 27 20 32 45 29 17 -2 37 -11 46 -22 10 -11 24 -16 40
-13 24 4 59 -7 92 -29 15 -11 20 -10 35 10 16 21 19 21 39 7 12 -9 20 -22 17
-29 -3 -7 2 -16 10 -19 24 -9 20 -47 -4 -47 -24 0 -27 -34 -5 -57 12 -11 13
-18 4 -29 -9 -11 -16 -11 -42 0 -29 11 -32 17 -33 60 -1 66 -20 80 -28 22 -6
-36 -11 -46 -26 -46 -10 0 -22 5 -25 10 -3 6 -17 10 -31 10 -16 0 -27 7 -33
22 -5 14 -10 17 -15 10 -13 -21 -63 -14 -83 12 -15 18 -23 22 -36 14 -27 -15
-56 0 -77 40 -13 25 -19 31 -20 18 0 -16 -5 -17 -37 -11 -21 4 -44 12 -52 18
-7 6 -28 10 -45 9 -22 -2 -38 3 -50 17 -11 12 -30 21 -43 21 -29 0 -83 27 -83
41 0 6 9 13 20 16 22 6 26 33 9 64 -9 17 -7 21 10 26 12 3 21 13 21 22 0 31
20 40 39 18z m-2419 -54 c-5 -27 -4 -53 2 -60 17 -21 -9 -24 -33 -3 -21 17
-22 19 -6 20 14 0 18 7 17 28 -2 33 10 73 20 67 4 -2 4 -26 0 -52z m-56 41 c8
-3 12 -12 10 -19 -3 -8 -12 -11 -20 -8 -9 3 -14 -2 -14 -16 0 -12 5 -21 10
-21 6 0 10 -7 10 -15 0 -17 -9 -19 -29 -6 -9 6 -11 20 -6 50 7 42 11 46 39 35z
m112 -63 c-4 -34 -3 -62 3 -65 10 -7 21 16 21 46 0 14 5 18 16 14 9 -3 20 -6
25 -6 5 0 9 -9 9 -21 0 -11 -4 -17 -10 -14 -5 3 -10 -3 -10 -14 0 -28 14 -26
30 4 16 30 25 31 47 6 9 -11 20 -18 25 -15 4 3 16 3 26 0 17 -6 20 -23 13 -83
-3 -29 -20 -10 -23 25 l-4 37 -11 -35 -11 -35 -1 36 c-1 34 -3 36 -27 31 l-27
-5 23 -17 c17 -13 20 -19 10 -25 -8 -5 -19 -1 -29 12 -9 11 -23 20 -31 20 -8
0 -32 7 -52 16 l-37 16 2 65 c1 48 6 66 16 66 11 0 12 -12 7 -59z m451 33 c23
-9 45 -24 48 -33 7 -24 -9 -73 -28 -85 -22 -14 -48 19 -44 58 3 38 -20 47 -25
9 -2 -17 -9 -28 -18 -28 -11 0 -14 10 -11 40 5 63 9 65 78 39z m101 3 c7 -8 7
-28 1 -60 -6 -34 -5 -54 3 -67 15 -23 6 -34 -21 -25 -19 6 -20 13 -17 83 3 42
5 78 5 80 3 6 20 0 29 -11z m540 -19 c-2 -3 5 -15 16 -27 17 -18 17 -21 3 -27
-22 -8 -31 -42 -16 -60 15 -19 6 -28 -21 -19 -18 6 -21 12 -16 43 4 21 2 43
-3 51 -6 9 -3 20 8 31 15 17 37 23 29 8z m-472 -8 c7 -7 8 -29 3 -62 -10 -62
-1 -82 17 -39 14 34 43 41 64 16 9 -11 10 -27 4 -58 -10 -48 -37 -61 -61 -28
-8 12 -18 19 -23 16 -4 -3 -15 -2 -24 1 -13 5 -15 19 -12 83 2 42 4 77 5 79 2
6 18 1 27 -8z m558 -53 c15 -11 17 -21 11 -59 -8 -51 -21 -63 -50 -42 -21 15
-23 77 -4 100 14 17 20 17 43 1z m-921 -44 c3 -16 -1 -32 -9 -40 -17 -17 -18
-29 -4 -38 17 -10 11 -27 -7 -23 -14 3 -18 14 -18 53 0 68 27 103 38 48z m983
13 c3 -8 13 -12 25 -9 20 6 26 -11 8 -23 -7 -4 -9 -21 -5 -45 6 -39 -8 -55
-20 -24 -4 10 -13 13 -24 10 -26 -8 -35 13 -16 34 13 14 14 24 7 45 -9 21 -8
26 5 26 8 0 17 -6 20 -14z m103 -12 c2 -10 8 -22 15 -27 8 -5 6 -11 -6 -21
-20 -15 -24 -51 -7 -62 19 -12 -7 -27 -27 -16 -14 8 -19 23 -19 66 -1 31 2 56
7 56 4 0 8 7 8 16 0 22 24 12 29 -12z m-564 -18 c21 -15 14 -49 -8 -40 -10 3
-16 -5 -21 -26 -6 -33 -32 -38 -30 -7 0 10 1 33 2 52 2 39 23 46 57 21z
m-1283 -69 c-21 -47 -37 -64 -46 -48 -10 15 45 114 56 103 7 -7 3 -25 -10 -55z
m833 33 c9 -27 -3 -42 -26 -35 -11 4 -19 2 -19 -5 0 -7 9 -14 20 -17 11 -3 20
-9 20 -14 0 -14 -36 -11 -48 4 -11 12 -8 60 4 79 10 16 43 8 49 -12z m120 -58
c0 -66 14 -84 30 -36 5 16 10 30 11 32 1 2 12 -1 23 -8 21 -11 28 -50 15 -84
-8 -20 -38 -21 -54 -1 -7 8 -21 15 -32 15 -25 0 -30 17 -19 73 5 28 5 50 0 53
-13 7 0 26 14 21 8 -2 12 -28 12 -65z m-882 52 c8 -9 -41 -104 -53 -104 -15 0
-12 20 11 67 20 42 29 50 42 37z m1348 -15 c12 -6 17 -15 12 -22 -4 -7 -7 -25
-8 -41 0 -38 -27 -56 -50 -32 -13 13 -14 20 -5 31 6 8 9 19 5 25 -8 13 3 50
16 50 6 0 19 -5 30 -11z m-1246 -45 c0 -10 -6 -18 -12 -16 -8 1 -13 -9 -13
-28 0 -16 5 -30 10 -30 6 0 10 -7 10 -15 0 -19 -24 -19 -40 0 -16 19 -7 94 12
106 19 12 33 5 33 -17z m1319 13 c15 -11 17 -21 11 -60 -8 -49 -27 -61 -53
-35 -24 24 -10 108 18 108 3 0 14 -6 24 -13z m81 -19 c14 -29 14 -34 0 -44
-17 -12 -21 -54 -5 -54 6 0 10 -5 10 -11 0 -6 -10 -9 -22 -7 -20 3 -24 11 -28
58 -5 40 -2 59 9 72 9 10 16 18 17 18 2 0 10 -15 19 -32z m80 -10 c28 -13 32
-26 10 -34 -19 -8 -31 -70 -16 -88 16 -19 3 -26 -30 -14 -16 5 -29 11 -29 12
0 2 7 17 16 35 11 21 14 44 10 67 -7 37 -2 41 39 22z m-490 -11 c3 -7 1 -33
-3 -59 -6 -27 -5 -53 0 -63 12 -20 6 -28 -15 -19 -13 5 -16 20 -14 80 1 52 6
74 15 74 7 0 15 -6 17 -13z m2511 -18 c9 -7 27 -15 40 -17 74 -9 100 -55 70
-126 -13 -31 -19 -36 -49 -36 -45 0 -70 29 -73 83 -1 34 -6 43 -22 45 -17 3
-21 -3 -24 -30 -2 -28 -7 -33 -28 -33 -24 0 -25 3 -24 52 2 79 7 87 55 80 22
-3 47 -11 55 -18z m-3442 -4 c8 -8 22 -15 31 -15 8 0 18 -6 21 -14 3 -8 11
-13 19 -10 7 3 20 -2 29 -11 13 -14 19 -15 32 -5 8 7 15 11 17 9 25 -43 25
-47 10 -62 -9 -9 -13 -23 -9 -32 7 -21 26 -10 26 15 0 23 13 32 34 24 20 -8
31 -43 18 -56 -6 -6 -8 -17 -5 -24 8 -22 -26 -29 -42 -8 -7 11 -18 20 -24 20
-6 1 -15 2 -21 3 -5 0 -10 19 -10 41 0 22 -4 40 -10 40 -5 0 -10 -11 -10 -24
0 -32 -17 -42 -39 -22 -10 9 -24 16 -32 16 -24 0 -39 22 -39 57 0 18 -4 33
-10 33 -5 0 -10 -9 -10 -19 0 -19 -17 -38 -26 -28 -3 2 -2 23 2 46 7 43 22 52
48 26z m3654 -7 c15 -13 16 -65 1 -107 -10 -28 -9 -37 11 -63 15 -20 19 -33
12 -40 -15 -15 -82 9 -83 30 -4 49 -5 188 -1 195 4 9 41 0 60 -15z m-2649 -67
c-11 -58 -5 -72 32 -78 21 -3 21 -2 5 21 -24 38 -4 71 30 48 9 -6 12 -58 5
-94 -2 -14 -38 -8 -51 7 -7 8 -19 15 -27 15 -8 0 -24 5 -35 11 -21 11 -21 12
-3 25 13 10 16 21 12 44 -5 23 -3 30 9 30 8 0 12 5 9 10 -8 13 5 34 15 23 5
-4 4 -32 -1 -62z m-1243 48 c3 -6 1 -16 -5 -22 -6 -6 -11 -35 -11 -65 0 -46
-3 -53 -17 -50 -15 3 -18 13 -16 53 2 28 5 60 8 73 6 23 29 30 41 11z m1830
-4 c3 -8 2 -19 -2 -26 -12 -20 -15 -97 -4 -104 5 -3 10 -11 10 -17 0 -14 -51
-1 -70 18 -12 12 -12 14 4 14 16 0 18 6 14 45 -3 25 -2 45 3 45 4 0 11 9 14
20 7 23 23 26 31 5z m-92 -8 c16 -11 18 -22 12 -60 -5 -32 -12 -47 -22 -47
-13 0 -14 8 -9 41 5 29 4 40 -4 35 -6 -4 -11 -16 -11 -26 0 -19 -17 -36 -26
-27 -3 3 -2 26 1 51 8 49 24 58 59 33z m2277 -7 c22 -12 24 -41 8 -106 -10
-39 -9 -48 5 -62 15 -15 16 -15 16 5 0 34 38 75 64 68 63 -18 76 -28 82 -61 3
-19 2 -40 -4 -47 -6 -6 -12 -23 -14 -37 -2 -21 -9 -26 -38 -28 -28 -2 -41 3
-60 23 -13 14 -35 25 -50 25 -14 0 -36 7 -49 17 -22 15 -23 20 -18 88 4 43 2
76 -4 82 -14 14 0 43 23 43 11 0 28 -5 39 -10z m-3981 -22 c0 -21 43 -55 77
-62 17 -4 37 -14 44 -22 6 -8 20 -14 30 -14 10 0 21 -5 25 -11 4 -8 9 -8 17 0
16 16 27 14 27 -5 0 -10 6 -14 14 -11 24 9 65 -16 69 -43 l4 -25 8 23 c12 38
30 19 28 -29 -2 -24 0 -38 3 -31 12 26 84 3 84 -27 0 -15 10 -14 53 4 34 14
37 14 47 -5 12 -23 6 -40 -16 -40 -8 0 -14 -10 -14 -24 0 -35 15 -40 28 -11
13 28 34 32 56 10 8 -8 21 -15 30 -15 8 0 22 -7 31 -16 13 -13 18 -14 31 -3
11 9 18 9 26 1 7 -7 8 -12 4 -12 -5 0 -3 -7 4 -15 10 -13 10 -19 -4 -34 -14
-15 -15 -24 -7 -40 13 -23 0 -37 -25 -27 -11 4 -15 17 -13 40 2 19 0 38 -4 42
-4 4 -7 -4 -7 -19 0 -27 -18 -46 -29 -31 -9 13 -49 34 -65 34 -7 0 -19 7 -26
15 -7 8 -21 15 -32 15 -11 0 -22 9 -25 20 -3 13 -14 20 -29 20 -13 0 -29 6
-36 13 -7 8 -20 12 -30 9 -10 -2 -20 2 -24 12 -3 9 -11 16 -18 16 -6 0 -22 7
-34 16 -22 15 -22 17 -7 34 13 14 14 23 6 37 -9 16 -11 15 -21 -14 -13 -36
-22 -40 -40 -19 -6 8 -21 16 -33 18 -16 2 -24 12 -28 38 -4 19 -7 25 -8 14 -1
-30 -26 -37 -46 -14 -10 11 -21 17 -26 15 -4 -3 -16 3 -26 13 -10 9 -39 28
-65 40 -46 22 -47 24 -45 65 2 23 6 48 11 55 9 16 26 16 26 0z m1862 -18 c-1
-7 5 -18 15 -25 16 -12 15 -13 -5 -26 -24 -15 -28 -39 -11 -56 19 -19 6 -32
-20 -22 -21 8 -23 14 -18 48 2 21 1 45 -4 52 -5 8 -2 20 9 31 19 18 39 18 34
-2z m-512 -8 c0 -10 5 -23 12 -30 9 -9 7 -13 -5 -18 -19 -7 -23 -49 -7 -59 18
-11 0 -26 -18 -16 -30 17 -21 139 11 141 4 0 7 -8 7 -18z m613 -11 c3 -11 2
-22 -1 -25 -10 -11 -13 -106 -3 -106 5 0 15 16 22 35 13 34 31 43 56 27 14 -9
17 -28 15 -85 -2 -35 -4 -38 -29 -35 -16 2 -34 11 -41 21 -7 9 -19 17 -27 17
-20 0 -65 22 -65 32 0 4 7 8 16 8 14 0 16 7 11 45 -4 25 -3 45 3 45 5 0 12 9
15 20 8 25 21 26 28 1z m-1420 -50 c13 -26 13 -31 -1 -44 -8 -9 -12 -23 -9
-31 12 -30 25 -16 32 34 7 51 25 70 25 26 0 -13 7 -26 15 -30 8 -3 15 -13 15
-22 0 -13 3 -14 14 -5 7 6 20 9 29 6 17 -7 29 -53 15 -61 -5 -3 -7 -12 -4 -19
3 -8 -1 -19 -9 -25 -10 -8 -17 -5 -32 13 -10 13 -24 22 -31 19 -8 -2 -12 8
-13 30 -1 25 -3 27 -6 10 -4 -20 -9 -23 -31 -17 -15 4 -32 10 -37 15 -17 14
-7 130 10 130 2 0 10 -13 18 -29z m885 1 c13 -13 17 -29 14 -60 -4 -36 -7 -42
-27 -42 -39 0 -49 23 -34 75 15 50 21 53 47 27z m691 -1 c10 -7 12 -23 6 -69
-5 -42 -3 -66 6 -80 16 -25 8 -36 -19 -28 -25 8 -33 39 -23 93 5 23 4 46 -1
51 -9 9 -1 42 11 42 3 0 12 -4 20 -9z m-548 -57 c20 -121 20 -134 6 -134 -10
0 -18 22 -26 75 -14 96 -14 108 1 103 7 -3 16 -22 19 -44z m2708 3 c18 -8 26
-20 26 -37 0 -22 -4 -25 -35 -25 -32 0 -35 -3 -40 -35 -4 -26 -10 -36 -26 -38
-36 -5 -45 18 -33 84 6 32 13 63 16 68 6 10 55 1 92 -17z m-2629 -3 c0 -14 3
-14 15 -4 13 11 15 8 15 -13 0 -32 -9 -57 -21 -57 -5 0 -9 7 -9 16 0 14 -3 14
-15 4 -13 -11 -15 -7 -15 22 0 19 3 38 7 41 11 12 23 7 23 -9z m568 -1 c45
-17 56 -48 17 -48 -15 0 -21 -10 -27 -43 -8 -50 -16 -65 -30 -56 -6 4 -7 29
-3 65 5 40 3 59 -4 59 -6 0 -11 9 -11 20 0 24 3 24 58 3z m-480 -70 c4 -37 28
-47 54 -21 10 10 22 18 28 18 26 0 41 -80 25 -131 -5 -16 -10 -17 -27 -8 -27
15 -35 4 -9 -13 20 -12 29 -38 13 -38 -18 0 -50 31 -56 55 -4 14 -11 23 -15
20 -18 -10 -41 7 -41 31 0 14 -6 24 -14 24 -11 0 -13 9 -10 38 8 56 12 64 31
60 12 -2 19 -14 21 -35z m567 -5 c26 -12 27 -14 20 -68 l-7 -55 22 21 c18 18
20 24 9 47 -7 15 -10 29 -7 32 9 9 38 -6 38 -20 0 -8 9 -10 25 -7 16 3 25 0
25 -8 0 -9 8 -7 25 4 29 19 45 14 45 -15 0 -10 5 -19 10 -19 19 0 10 -32 -10
-37 -24 -6 -26 -30 -3 -55 23 -25 8 -36 -25 -17 -23 13 -27 21 -24 54 3 52
-10 74 -33 55 -9 -7 -14 -18 -12 -24 17 -46 18 -56 2 -56 -8 0 -18 7 -21 15
-4 10 -13 13 -24 10 -10 -3 -21 -1 -25 5 -3 5 -18 10 -32 10 -38 0 -63 27 -63
67 0 32 18 73 32 73 4 0 19 -5 33 -12z m-1497 -20 c2 -11 -3 -18 -12 -18 -9 0
-16 -8 -16 -20 0 -11 5 -20 10 -20 6 0 10 -7 10 -15 0 -18 -21 -20 -38 -3 -13
13 -16 56 -6 83 8 21 48 16 52 -7z m3717 7 c34 -8 70 -49 58 -68 -4 -6 -6 -19
-5 -28 2 -9 -4 -22 -13 -29 -13 -11 -26 -10 -75 5 -70 21 -85 35 -74 67 8 23
10 31 12 57 2 13 17 13 97 -4z m-4400 -25 c-3 -4 10 -11 29 -14 19 -4 39 -13
46 -21 7 -8 20 -15 30 -15 22 0 44 -25 35 -40 -3 -6 -11 -8 -16 -5 -13 9 -11
-9 2 -22 18 -18 2 -63 -22 -63 -11 0 -22 7 -25 15 -4 8 -13 15 -21 15 -8 0
-29 11 -47 25 -18 14 -39 25 -45 25 -10 0 -11 13 -6 53 9 62 11 68 30 61 8 -4
13 -10 10 -14z m741 -5 c4 -8 17 -15 30 -15 13 0 32 -8 42 -18 10 -10 23 -17
28 -15 16 5 44 -20 49 -45 5 -29 -12 -68 -34 -76 -9 -3 -22 -9 -30 -12 -10 -5
-13 1 -9 28 3 32 1 35 -20 32 -13 -1 -31 5 -41 15 -9 9 -23 15 -29 13 -34 -11
-59 67 -30 96 16 16 37 15 44 -3z m1027 8 c3 -5 8 -35 11 -68 4 -33 10 -70 13
-82 4 -16 1 -23 -10 -23 -18 0 -25 24 -33 113 -5 45 -3 67 4 67 6 0 13 -3 15
-7z m2965 -9 c28 -19 28 -32 0 -61 -19 -20 -22 -36 -23 -105 -1 -48 -6 -83
-12 -85 -15 -5 -83 24 -83 35 0 13 39 204 45 220 6 17 46 15 73 -4z m-2878
-30 c0 -14 3 -14 15 -4 22 18 28 7 21 -34 -7 -37 -26 -59 -26 -30 0 11 -6 15
-20 11 -17 -4 -20 0 -20 27 0 18 3 36 7 39 11 12 23 7 23 -9z m-914 -70 c0
-75 2 -84 13 -84 5 0 11 12 13 28 3 31 44 45 54 18 8 -20 33 -21 40 -1 8 21
24 19 24 -3 0 -10 6 -24 13 -31 10 -10 9 -15 -5 -25 -20 -15 -24 -41 -8 -51
20 -12 -1 -25 -22 -14 -16 9 -19 18 -15 43 6 40 -6 67 -18 39 -5 -10 -7 -26
-6 -35 3 -26 -34 -23 -53 3 -8 12 -18 19 -23 16 -5 -3 -15 -2 -23 3 -10 6 -13
28 -13 77 2 89 1 85 16 80 8 -2 12 -25 13 -63z m1650 32 c18 -14 18 -16 3 -43
-20 -34 -33 -110 -20 -117 10 -7 21 27 21 69 1 63 45 74 57 14 l6 -31 12 28
c11 28 11 28 31 8 11 -11 30 -18 44 -16 34 3 75 -30 66 -53 -4 -11 -12 -15
-24 -10 -9 4 -24 9 -32 13 -8 3 -3 -7 13 -21 18 -17 27 -36 27 -57 0 -23 4
-30 20 -30 10 0 23 -7 28 -16 6 -11 12 -13 16 -6 3 6 -5 22 -19 36 -39 39 -27
106 19 106 26 0 64 -39 59 -61 -6 -21 -18 -25 -28 -9 -3 6 -12 10 -20 10 -9 0
-5 -9 10 -25 24 -23 31 -57 19 -89 -9 -23 -55 -20 -84 7 -14 12 -38 24 -54 25
-17 1 -39 11 -51 22 -12 11 -29 20 -39 20 -10 0 -23 14 -31 33 -9 21 -14 25
-15 13 0 -14 -6 -17 -25 -14 -13 3 -26 0 -28 -6 -3 -8 -12 -7 -31 2 -25 11
-27 17 -22 45 3 17 10 62 17 100 11 69 20 78 55 53z m-124 -8 c13 -10 14 -18
6 -38 -6 -14 -11 -38 -12 -54 -1 -35 -17 -43 -40 -21 -12 12 -13 21 -6 35 6
10 10 35 10 54 0 38 14 46 42 24z m-2287 -25 c0 -6 3 -15 7 -19 4 -4 3 -13 -3
-21 -7 -7 -9 -26 -5 -43 6 -31 -4 -39 -22 -17 -13 15 -19 88 -8 105 9 15 31
11 31 -5z m120 -93 c-4 -40 -3 -60 4 -60 6 0 11 11 11 25 0 31 32 34 53 5 8
-11 16 -17 20 -14 3 3 15 0 27 -6 19 -10 21 -17 15 -53 -11 -70 -15 -78 -38
-75 -18 2 -22 9 -19 36 2 26 -2 32 -18 32 -11 0 -20 5 -20 10 0 6 -3 9 -7 9
-5 -1 -23 4 -40 11 -34 12 -41 28 -22 47 16 16 3 43 -21 43 -13 0 -20 -7 -20
-20 0 -12 -7 -20 -16 -20 -11 0 -14 5 -10 16 3 9 6 27 6 40 0 28 24 32 51 8
16 -14 18 -14 29 5 18 34 21 25 15 -39z m1721 16 c-4 -27 -3 -47 3 -51 6 -3
13 11 17 35 4 25 12 40 21 40 11 0 12 -11 7 -52 -8 -64 -14 -71 -46 -59 -36
13 -38 21 -31 80 4 35 10 51 21 51 11 0 13 -9 8 -44z m-1347 8 c44 -22 51 -29
51 -55 0 -41 -16 -69 -40 -69 -19 0 -33 30 -34 72 -1 26 -21 26 -24 1 -2 -13
-10 -23 -19 -23 -12 0 -14 8 -9 38 3 20 6 43 6 50 0 17 12 15 69 -14z m497
-11 c-15 -77 -17 -101 -9 -106 5 -3 15 10 22 29 14 39 23 42 51 14 19 -19 20
-37 4 -87 -5 -19 -41 -16 -56 5 -7 9 -17 17 -23 18 -45 5 -79 44 -39 44 13 0
15 7 11 35 -3 19 -2 35 4 35 5 0 9 9 9 20 0 12 7 20 16 20 12 0 14 -7 10 -27z
m-397 4 c7 -10 8 -29 3 -58 -5 -27 -5 -54 1 -67 12 -27 2 -40 -21 -25 -13 8
-17 25 -17 79 0 38 1 72 3 77 5 11 18 8 31 -6z m1366 -13 c14 -9 22 -21 18
-30 -4 -12 -8 -12 -21 -2 -14 11 -14 9 1 -14 21 -33 22 -52 2 -68 -12 -10 -20
-9 -40 4 -33 22 -33 40 1 32 l25 -7 -21 30 c-15 19 -20 36 -15 50 8 25 18 26
50 5z m-1290 -23 c3 -5 1 -31 -5 -56 -7 -31 -7 -52 0 -63 8 -15 9 -15 10 4 0
28 24 47 49 39 21 -6 36 -49 24 -68 -4 -7 -8 -19 -8 -27 0 -25 -41 -24 -59 2
-9 12 -16 19 -16 15 0 -4 -9 -3 -20 3 -17 9 -19 20 -18 85 1 64 4 75 19 75 10
0 20 -4 24 -9z m1393 -29 c14 -18 15 -35 6 -81 -6 -29 -10 -32 -33 -26 -14 4
-32 11 -38 17 -15 12 -17 54 -3 63 6 3 10 17 10 31 0 22 3 24 23 19 12 -4 28
-14 35 -23z m740 -14 c7 -7 12 -20 12 -29 0 -9 7 -19 15 -23 22 -8 18 -36 -4
-36 -27 0 -39 -40 -17 -55 38 -29 8 -47 -32 -19 -17 12 -22 24 -21 57 1 23 -2
53 -6 66 -6 18 -5 22 4 17 8 -5 14 0 18 13 6 24 14 26 31 9z m-631 -34 c8 -22
-11 -107 -24 -112 -9 -2 -13 11 -13 48 0 31 -4 49 -10 45 -5 -3 -10 -19 -10
-36 0 -26 -17 -39 -32 -24 -5 5 5 59 17 102 5 16 64 -3 72 -23z m-1046 16 c21
-12 27 -72 9 -100 -14 -22 -25 -4 -23 38 l2 37 -10 -32 c-14 -48 -32 -42 -25
10 3 23 5 45 5 50 1 10 19 9 42 -3z m1153 -9 c3 -4 -1 -39 -9 -77 -8 -38 -15
-73 -15 -77 0 -11 -42 -5 -56 8 -20 19 -26 55 -14 91 10 30 16 35 35 30 17 -4
24 -1 28 14 5 21 22 27 31 11z m-1909 -33 c6 -13 20 -22 34 -23 13 -1 29 -9
36 -18 7 -10 19 -17 28 -17 8 0 17 -4 19 -9 5 -13 48 -24 48 -12 0 6 7 11 15
11 8 0 15 -8 15 -18 0 -10 5 -23 11 -29 7 -7 6 -15 -5 -26 -18 -17 -21 -43 -7
-51 5 -3 12 10 15 29 8 40 26 45 56 15 11 -11 27 -20 35 -20 8 0 15 -4 15 -9
0 -14 43 -21 57 -10 17 15 29 4 37 -32 4 -23 2 -35 -10 -44 -14 -10 -14 -15
-4 -34 14 -27 5 -39 -18 -25 -10 7 -19 29 -22 55 l-5 44 -7 -32 c-6 -27 -12
-33 -33 -33 -18 0 -26 7 -31 25 -6 23 -7 24 -35 10 -42 -22 -52 -19 -47 15 3
23 1 30 -12 30 -27 0 -39 20 -33 56 3 21 1 34 -5 34 -6 0 -12 -12 -14 -27 -4
-35 -38 -38 -53 -6 -7 17 -15 21 -32 17 -17 -5 -25 0 -34 20 -8 16 -20 26 -33
26 -28 0 -44 28 -39 67 5 28 12 35 43 42 3 0 10 -9 15 -21z m903 -3 c-2 -15 4
-29 16 -38 16 -12 18 -20 10 -61 -11 -56 -30 -58 -26 -2 2 25 0 36 -7 31 -6
-3 -11 -17 -11 -31 0 -15 -6 -24 -15 -24 -8 0 -15 8 -15 18 0 17 17 96 25 120
8 22 26 13 23 -13z m-463 -17 c14 -6 25 -14 25 -17 -1 -15 -18 -32 -31 -29 -8
2 -15 -7 -17 -19 -3 -22 -26 -32 -35 -15 -6 12 14 92 23 92 5 0 21 -5 35 -12z
m2142 -24 c32 -20 19 -48 -18 -40 -24 4 -29 2 -29 -13 0 -30 -11 -51 -25 -51
-23 0 -25 15 -13 75 11 54 12 56 37 50 14 -3 36 -13 48 -21z m108 6 c4 -12 2
-27 -4 -34 -6 -7 -8 -15 -6 -18 3 -3 2 -24 -3 -46 -7 -27 -6 -44 1 -51 19 -19
25 -12 31 34 8 50 17 54 71 28 26 -12 35 -23 35 -41 0 -24 1 -24 19 -8 18 17
22 17 66 -3 36 -16 45 -25 41 -38 -3 -10 -8 -36 -11 -58 -11 -66 -16 -76 -42
-86 -19 -7 -32 -6 -49 6 -23 15 -33 50 -15 57 4 2 2 19 -5 38 -9 26 -13 30
-13 13 -1 -12 -5 -24 -10 -27 -17 -11 -35 26 -32 66 2 27 -1 38 -8 34 -6 -4
-11 -20 -11 -35 0 -15 -3 -30 -6 -34 -6 -6 -118 39 -141 56 -19 14 -16 27 6
27 24 0 36 32 22 59 -15 28 -14 41 4 35 10 -4 15 0 15 13 0 37 34 47 45 13z
m-698 -27 c24 -37 7 -97 -28 -101 -15 -2 -32 4 -40 14 -16 20 -16 88 0 108 16
19 49 9 68 -21z m-2585 -26 c-2 -15 2 -27 9 -27 6 0 9 7 5 15 -3 8 -1 15 4 15
6 0 10 -7 10 -16 0 -11 6 -15 20 -11 23 6 25 -7 10 -48 -9 -22 -12 -24 -30
-13 -11 7 -20 22 -20 33 0 15 -2 17 -9 6 -10 -15 -41 -8 -41 9 0 6 4 8 10 5 6
-4 7 2 1 17 -11 30 -3 50 18 46 11 -3 15 -12 13 -31z m1592 10 c15 -11 17 -21
11 -60 -8 -54 -12 -58 -43 -46 -31 12 -37 34 -22 80 14 41 25 47 54 26z m1181
-3 c9 -9 14 -23 11 -30 -14 -36 -18 -115 -6 -128 20 -25 2 -38 -26 -20 -26 18
-30 47 -14 103 7 24 6 39 -1 48 -12 14 -5 43 10 43 5 0 17 -7 26 -16z m-1587
-19 c2 -2 -1 -12 -6 -22 -7 -12 -7 -25 -1 -34 7 -12 9 -11 9 2 0 26 22 38 49
28 22 -9 23 -13 17 -56 -3 -26 -11 -52 -16 -57 -13 -13 -50 21 -50 46 0 15 -3
16 -19 7 -33 -22 -52 -5 -48 44 5 60 13 70 40 56 12 -7 23 -13 25 -14z m-1075
-57 c-1 -46 -5 -62 -15 -60 -24 6 -34 22 -19 31 8 6 12 19 9 35 -3 14 -1 26 3
26 5 0 9 7 9 15 0 8 3 15 8 15 4 0 6 -28 5 -62z m1558 42 c13 -8 19 -22 20
-48 1 -22 3 -29 6 -17 6 24 23 37 41 30 8 -3 16 4 19 15 5 20 18 26 26 13 3
-5 0 -39 -7 -78 -11 -65 -13 -70 -36 -70 -18 0 -29 9 -42 35 -11 22 -17 28
-18 17 0 -11 -6 -17 -12 -14 -9 2 -12 20 -10 48 2 32 0 40 -7 29 -6 -8 -11
-23 -11 -32 0 -10 -7 -18 -16 -18 -12 0 -14 7 -9 33 15 73 18 77 56 57z m-351
-40 c0 -10 6 -21 13 -24 9 -3 7 -9 -5 -19 -21 -17 -23 -48 -5 -66 10 -10 7
-12 -13 -9 -22 3 -26 9 -30 58 -5 40 -2 59 9 72 17 20 31 15 31 -12z m-1153
13 c-4 -3 -2 -12 4 -19 8 -10 7 -18 -5 -29 -12 -13 -14 -21 -5 -37 13 -24 5
-35 -14 -20 -8 7 -13 28 -11 51 2 43 10 61 26 61 6 0 8 -3 5 -7z m1672 -2 c11
-7 11 -20 3 -67 -7 -45 -7 -63 3 -77 12 -17 13 -16 20 10 11 47 23 55 56 37
30 -15 33 -25 23 -86 -5 -31 -11 -38 -29 -38 -13 0 -27 10 -35 25 -8 14 -20
23 -27 21 -38 -15 -62 36 -45 97 6 22 6 39 1 44 -10 10 -2 43 10 43 3 0 12 -4
20 -9z m-423 -46 c8 -30 -3 -46 -17 -25 -8 13 -10 13 -19 0 -16 -24 -11 -59 9
-70 27 -14 31 -13 31 8 0 50 69 43 71 -7 1 -17 3 -20 6 -8 2 9 9 17 14 17 20
0 69 -31 69 -44 0 -8 8 -12 23 -9 30 5 45 -7 51 -40 7 -40 -9 -77 -34 -77 -11
0 -23 -7 -26 -15 -4 -8 -11 -15 -16 -15 -7 0 -9 20 -5 53 3 28 3 44 0 35 -2
-10 -9 -18 -14 -18 -21 0 -69 31 -69 45 0 11 -6 12 -23 6 -24 -9 -37 0 -51 34
-5 13 -10 15 -13 8 -15 -40 -63 12 -63 67 0 68 62 112 76 55z m1452 14 c35
-12 44 -35 35 -96 -6 -48 -9 -49 -58 -29 -29 12 -35 20 -35 45 0 16 5 33 10
36 6 3 10 17 10 31 0 28 -2 27 38 13z m-2581 -60 c16 -19 9 -89 -9 -89 -6 0
-8 11 -6 25 3 14 1 28 -3 31 -5 3 -9 -4 -9 -15 0 -12 -5 -21 -11 -21 -10 0 -5
77 8 110 5 12 7 11 11 -5 2 -11 11 -27 19 -36z m-49 24 c2 -7 -3 -13 -12 -13
-19 0 -22 -36 -3 -43 9 -3 9 -8 1 -17 -9 -9 -15 -7 -27 10 -9 12 -14 29 -11
36 2 8 6 21 9 30 6 18 36 15 43 -3z m824 -63 c-1 -14 -3 -36 -3 -50 0 -34 -25
-68 -40 -53 -9 9 -9 20 0 44 6 17 11 45 11 61 0 23 4 29 18 26 11 -3 16 -11
14 -28z m-647 -7 c-4 -16 -9 -52 -12 -80 -4 -39 -9 -53 -20 -53 -13 0 -15 12
-11 64 4 61 19 96 40 96 6 0 7 -11 3 -27z m2679 6 c32 -15 38 -31 30 -91 -7
-49 -7 -50 -37 -44 -59 12 -82 52 -52 92 8 10 15 27 15 37 0 20 10 21 44 6z
m656 -4 c30 -16 39 -38 20 -50 -6 -3 -7 -17 -4 -30 3 -13 3 -33 -1 -44 -8 -28
-58 -25 -86 5 -19 20 -21 28 -11 46 6 13 11 30 10 38 -5 53 17 64 72 35z
m-1725 -11 c14 -9 25 -25 25 -35 0 -22 -11 -24 -28 -7 -12 12 -17 4 -24 -37
-5 -30 -34 -25 -31 5 6 56 14 90 24 90 5 0 21 -7 34 -16z m1839 10 c9 -3 16
-16 16 -28 0 -12 9 -27 20 -34 24 -15 16 -40 -13 -44 -31 -4 -34 -38 -6 -59
18 -13 21 -21 13 -29 -8 -8 -21 -7 -49 4 l-38 16 7 49 c5 37 3 51 -9 61 -21
17 -19 40 4 40 10 0 21 7 25 15 6 17 8 17 30 9z m-1684 -58 c0 -26 5 -36 20
-41 37 -12 22 -125 -17 -125 -12 0 -53 35 -53 45 0 7 22 124 26 138 9 29 24
19 24 -17z m-464 14 c7 -7 8 -30 2 -66 -6 -36 -5 -61 3 -75 13 -25 7 -33 -20
-24 -19 6 -20 12 -16 88 2 45 4 83 5 85 1 6 17 1 26 -8z m1494 -5 c24 -13 30
-22 30 -50 0 -18 -5 -46 -10 -61 -9 -23 -15 -26 -40 -20 -26 5 -30 2 -30 -15
0 -12 -5 -19 -12 -16 -14 4 -14 29 -3 120 8 62 16 67 65 42z m-2720 -25 c13
-11 29 -20 36 -20 7 0 16 -9 19 -20 4 -11 11 -18 16 -15 5 3 18 1 29 -5 16 -8
19 -17 14 -38 -6 -26 -6 -27 10 -7 12 14 19 16 22 8 3 -7 14 -13 25 -13 17 0
18 -5 13 -42 -4 -24 -11 -47 -16 -53 -13 -14 -42 7 -46 34 -3 18 -6 19 -24 10
-18 -9 -24 -8 -35 7 -7 10 -13 21 -13 25 0 4 -8 5 -18 2 -26 -6 -46 22 -45 63
1 41 -9 44 -26 7 -17 -37 -31 -17 -24 35 6 48 25 55 63 22z m1810 -43 c-1 -12
-5 -41 -9 -64 -6 -32 -4 -48 6 -63 8 -12 13 -24 10 -27 -12 -11 -45 9 -50 30
-4 17 -2 108 2 160 2 19 41 -16 41 -36z m1028 13 c28 -17 32 -25 32 -63 0 -50
-25 -83 -50 -67 -21 14 -30 12 -30 -4 0 -18 -27 -28 -33 -12 -8 20 25 166 37
166 6 0 26 -9 44 -20z m-3120 -13 c2 -12 -1 -15 -12 -11 -20 8 -22 -22 -2 -41
12 -12 15 -12 22 3 4 9 8 20 8 25 1 4 4 7 9 7 4 0 11 0 16 0 13 0 21 -39 14
-71 -7 -34 -16 -36 -43 -9 -11 11 -24 20 -29 20 -15 0 -40 41 -35 56 2 8 6 21
9 30 6 20 39 14 43 -9z m3812 7 c32 -13 40 -21 40 -41 0 -23 -3 -25 -34 -19
-36 7 -46 -3 -46 -46 0 -14 -6 -19 -22 -16 -21 3 -23 7 -19 63 1 33 5 63 8 68
7 11 29 8 73 -9z m-2216 -37 c26 -26 56 -31 56 -10 0 7 7 13 15 13 9 0 15 -9
15 -24 0 -13 5 -26 12 -28 7 -3 9 -12 5 -22 -4 -9 -11 -14 -17 -11 -6 4 -10
-5 -10 -19 0 -14 5 -28 10 -31 17 -10 11 -25 -9 -25 -27 0 -35 17 -36 69 0 29
-5 46 -14 49 -8 3 -11 0 -7 -6 3 -6 2 -13 -4 -17 -5 -3 -10 -17 -10 -31 0 -34
-31 -31 -53 5 -20 34 -21 51 -5 86 14 31 23 31 52 2z m1756 -25 c0 -4 -7 -32
-15 -62 -8 -30 -15 -58 -15 -61 0 -3 16 -13 35 -22 57 -27 45 -54 -13 -30 -62
25 -65 31 -52 109 16 97 16 97 40 84 11 -6 20 -14 20 -18z m-2834 -54 c-5 -39
-3 -64 4 -73 13 -16 -1 -28 -24 -19 -14 5 -16 20 -15 78 3 82 4 87 25 79 13
-5 15 -16 10 -65z m-407 48 c8 -10 9 -16 1 -21 -5 -3 -7 -17 -4 -30 7 -29 -13
-42 -34 -21 -12 12 -13 16 -3 16 9 0 11 8 7 25 -10 41 10 59 33 31z m2061 -11
c26 -14 30 -21 30 -58 0 -49 -7 -62 -38 -69 -40 -11 -68 76 -40 122 15 24 12
24 48 5z m-388 -6 c2 -6 -1 -38 -6 -70 -7 -44 -7 -62 2 -71 9 -9 12 -8 12 8 0
11 7 29 15 41 14 19 19 21 41 11 29 -14 40 -48 27 -91 -11 -42 -48 -49 -64
-13 -7 14 -17 22 -25 19 -17 -6 -74 27 -74 44 0 7 7 13 16 13 13 0 15 7 9 40
-4 24 -3 40 3 40 5 0 12 9 15 20 6 22 23 27 29 9z m-1612 -24 c16 -20 8 -51
-13 -47 -9 2 -17 -2 -17 -8 0 -5 7 -10 15 -10 8 0 15 -4 15 -10 0 -14 -23 -13
-38 2 -22 22 -12 88 13 88 7 0 18 -7 25 -15z m3340 -21 c0 -8 -7 -14 -15 -14
-12 0 -14 -4 -7 -16 5 -9 5 -35 1 -58 -6 -31 -4 -44 7 -52 18 -14 18 -34 1
-34 -7 0 -32 9 -56 21 -43 20 -51 44 -15 44 22 0 33 50 15 68 -17 17 -13 27
10 27 11 0 17 4 14 10 -4 6 -1 17 5 26 14 16 40 2 40 -22z m-2930 8 c0 -10 5
-23 12 -30 9 -9 7 -16 -6 -31 -14 -15 -15 -24 -7 -40 13 -24 -3 -39 -23 -21
-21 16 -26 101 -8 123 19 22 32 22 32 -1z m1707 -17 c14 -10 19 -22 16 -35 -5
-19 -7 -19 -23 -5 -20 18 -30 11 -30 -22 0 -16 6 -23 20 -23 13 0 20 -7 20
-20 0 -29 -43 -27 -59 4 -18 33 -18 95 -1 107 21 12 32 11 57 -6z m-1631 -20
c13 -50 -14 -135 -43 -135 -11 0 -13 5 -8 23 4 12 10 48 12 80 5 61 27 79 39
32z"/>
<path d="M4874 5175 c-4 -14 -4 -29 0 -32 11 -12 37 23 30 40 -9 25 -23 21
-30 -8z"/>
<path d="M4392 5178 c-17 -17 -15 -48 3 -48 10 0 15 10 15 30 0 34 -1 35 -18
18z"/>
<path d="M3726 5124 c-4 -10 -1 -14 6 -12 15 5 23 28 10 28 -5 0 -13 -7 -16
-16z"/>
<path d="M1830 5089 c0 -5 5 -7 10 -4 6 3 10 1 10 -5 0 -6 5 -8 10 -5 17 10
11 25 -10 25 -11 0 -20 -5 -20 -11z"/>
<path d="M3240 5114 c0 -8 5 -12 10 -9 6 3 10 10 10 16 0 5 -4 9 -10 9 -5 0
-10 -7 -10 -16z"/>
<path d="M2555 5100 c4 -6 11 -8 16 -5 14 9 11 15 -7 15 -8 0 -12 -5 -9 -10z"/>
<path d="M2030 5105 c0 -8 2 -15 4 -15 2 0 6 7 10 15 3 8 1 15 -4 15 -6 0 -10
-7 -10 -15z"/>
<path d="M2320 5108 c0 -19 2 -20 10 -8 13 19 13 30 0 30 -5 0 -10 -10 -10
-22z"/>
<path d="M1011 4736 c-13 -15 -7 -36 9 -36 12 0 19 25 11 39 -6 9 -11 8 -20
-3z"/>
<path d="M1126 4721 c-4 -7 -5 -15 -2 -18 9 -9 19 4 14 18 -4 11 -6 11 -12 0z"/>
<path d="M2256 4692 c-4 -13 -5 -26 -2 -29 10 -11 18 4 14 29 l-4 23 -8 -23z"/>
<path d="M2567 4693 c-11 -10 -8 -53 3 -53 6 0 10 14 10 30 0 31 -2 35 -13 23z"/>
<path d="M2188 4704 c-5 -4 -8 -16 -8 -28 0 -14 3 -17 11 -9 6 6 9 19 7 28 -1
9 -6 13 -10 9z"/>
<path d="M2331 4664 c0 -11 3 -14 6 -6 3 7 2 16 -1 19 -3 4 -6 -2 -5 -13z"/>
<path d="M2898 4683 c7 -3 16 -2 19 1 4 3 -2 6 -13 5 -11 0 -14 -3 -6 -6z"/>
<path d="M2896 4651 c-4 -7 -5 -15 -2 -18 9 -9 19 4 14 18 -4 11 -6 11 -12 0z"/>
<path d="M3440 4670 c0 -5 4 -10 9 -10 6 0 13 5 16 10 3 6 -1 10 -9 10 -9 0
-16 -4 -16 -10z"/>
<path d="M3440 4625 c0 -8 5 -15 10 -15 6 0 10 7 10 15 0 8 -4 15 -10 15 -5 0
-10 -7 -10 -15z"/>
<path d="M4066 4611 c-4 -7 -5 -15 -2 -18 9 -9 19 4 14 18 -4 11 -6 11 -12 0z"/>
<path d="M876 4565 c-3 -8 -1 -15 3 -15 5 0 11 7 15 15 3 8 1 15 -3 15 -5 0
-11 -7 -15 -15z"/>
<path d="M1600 4499 c0 -11 5 -17 10 -14 6 3 10 13 10 21 0 8 -4 14 -10 14 -5
0 -10 -9 -10 -21z"/>
<path d="M1666 4505 c-3 -8 -1 -17 3 -20 5 -3 11 2 15 10 3 8 1 17 -3 20 -5 3
-11 -2 -15 -10z"/>
<path d="M2227 4487 c-11 -29 -9 -53 4 -40 6 6 9 21 7 34 -3 21 -4 22 -11 6z"/>
<path d="M2533 4460 c-12 -28 -6 -47 9 -32 5 5 8 20 6 33 l-5 24 -10 -25z"/>
<path d="M3594 4395 c-7 -29 -1 -41 15 -30 14 8 14 55 1 55 -5 0 -12 -11 -16
-25z"/>
<path d="M3307 4393 c-10 -9 -9 -23 2 -23 5 0 11 7 15 15 5 15 -5 20 -17 8z"/>
<path d="M2277 3816 c-4 -10 -5 -21 -2 -24 9 -9 17 6 13 25 -3 17 -4 17 -11
-1z"/>
<path d="M720 3673 c0 -21 3 -24 9 -14 5 8 7 20 4 28 -8 21 -13 15 -13 -14z"/>
<path d="M822 3655 c0 -16 2 -22 5 -12 2 9 2 23 0 30 -3 6 -5 -1 -5 -18z"/>
<path d="M1080 3614 c-11 -12 -10 -18 3 -32 16 -15 17 -15 17 0 0 9 3 23 6 32
8 20 -10 21 -26 0z"/>
<path d="M1141 3614 c0 -11 3 -14 6 -6 3 7 2 16 -1 19 -3 4 -6 -2 -5 -13z"/>
<path d="M1212 3595 c0 -16 2 -22 5 -12 2 9 2 23 0 30 -3 6 -5 -1 -5 -18z"/>
<path d="M1326 3554 c-4 -9 -4 -19 -1 -22 2 -3 7 3 11 12 4 9 4 19 1 22 -2 3
-7 -3 -11 -12z"/>
<path d="M1370 3545 c0 -14 5 -25 10 -25 6 0 10 11 10 25 0 14 -4 25 -10 25
-5 0 -10 -11 -10 -25z"/>
<path d="M1490 3535 c-9 -11 -10 -19 -3 -26 7 -7 12 -2 15 15 6 30 5 31 -12
11z"/>
<path d="M1567 3517 c-11 -29 -9 -43 4 -30 6 6 9 19 7 29 -3 18 -4 18 -11 1z"/>
<path d="M1700 3491 c0 -5 -3 -17 -6 -25 -5 -12 -2 -15 10 -10 17 7 22 44 6
44 -5 0 -10 -4 -10 -9z"/>
<path d="M1883 3464 c-7 -12 -8 -26 -3 -34 13 -21 22 -7 18 27 -3 27 -4 27
-15 7z"/>
<path d="M2408 3357 c-4 -20 0 -27 16 -31 23 -6 36 2 20 12 -6 4 -15 15 -21
26 -9 17 -11 16 -15 -7z"/>
<path d="M2930 3250 c0 -11 5 -20 10 -20 6 0 10 9 10 20 0 11 -4 20 -10 20 -5
0 -10 -9 -10 -20z"/>
<path d="M1450 3137 c0 -8 7 -17 15 -21 8 -3 15 -2 15 3 0 5 -7 14 -15 21 -12
10 -15 10 -15 -3z"/>
<path d="M1735 2661 c-3 -5 -1 -12 5 -16 5 -3 10 1 10 9 0 18 -6 21 -15 7z"/>
<path d="M2686 2844 c-4 -10 -2 -22 4 -28 12 -12 17 -7 22 18 4 24 -17 32 -26
10z"/>
<path d="M2863 2814 c-7 -12 -8 -26 -3 -34 13 -21 22 -7 18 27 -3 27 -4 27
-15 7z"/>
<path d="M2944 2785 c-3 -14 -4 -28 -1 -31 10 -10 27 7 27 26 0 30 -19 33 -26
5z"/>
<path d="M3130 2760 c0 -5 5 -10 10 -10 6 0 10 5 10 10 0 6 -4 10 -10 10 -5 0
-10 -4 -10 -10z"/>
<path d="M2304 2499 c-3 -6 -1 -16 5 -22 8 -8 11 -5 11 11 0 24 -5 28 -16 11z"/>
<path d="M3707 2623 c-10 -9 -8 -51 2 -57 10 -7 21 17 21 45 0 19 -11 25 -23
12z"/>
<path d="M1322 2393 c-9 -18 -6 -43 6 -43 4 0 8 14 9 30 2 34 -2 38 -15 13z"/>
<path d="M4141 2516 c-14 -17 -11 -52 4 -49 13 2 24 38 16 52 -6 9 -11 8 -20
-3z"/>
<path d="M2620 2394 c0 -14 4 -23 10 -19 6 3 10 15 10 26 0 10 -4 19 -10 19
-5 0 -10 -12 -10 -26z"/>
<path d="M2875 2300 c3 -5 8 -10 11 -10 2 0 4 5 4 10 0 6 -5 10 -11 10 -5 0
-7 -4 -4 -10z"/>
<path d="M3225 2200 c-3 -5 -1 -10 4 -10 6 0 11 5 11 10 0 6 -2 10 -4 10 -3 0
-8 -4 -11 -10z"/>
<path d="M3520 2110 c0 -5 5 -10 10 -10 6 0 10 5 10 10 0 6 -4 10 -10 10 -5 0
-10 -4 -10 -10z"/>
<path d="M3720 2074 c0 -14 4 -23 10 -19 6 3 10 15 10 26 0 10 -4 19 -10 19
-5 0 -10 -12 -10 -26z"/>
<path d="M2160 2095 c0 -8 5 -15 10 -15 6 0 10 7 10 15 0 8 -4 15 -10 15 -5 0
-10 -7 -10 -15z"/>
<path d="M2470 1988 c0 -19 2 -20 10 -8 13 19 13 30 0 30 -5 0 -10 -10 -10
-22z"/>
<path d="M951 1934 c0 -11 3 -14 6 -6 3 7 2 16 -1 19 -3 4 -6 -2 -5 -13z"/>
<path d="M4071 1434 c0 -11 3 -14 6 -6 3 7 2 16 -1 19 -3 4 -6 -2 -5 -13z"/>
<path d="M2480 1510 c0 -5 5 -10 11 -10 5 0 7 5 4 10 -3 6 -8 10 -11 10 -2 0
-4 -4 -4 -10z"/>
<path d="M1815 1350 c-3 -5 -1 -10 4 -10 6 0 11 5 11 10 0 6 -2 10 -4 10 -3 0
-8 -4 -11 -10z"/>
<path d="M2290 1360 c0 -5 5 -10 11 -10 5 0 7 5 4 10 -3 6 -8 10 -11 10 -2 0
-4 -4 -4 -10z"/>
<path d="M4540 1274 c0 -8 5 -12 10 -9 6 3 10 10 10 16 0 5 -4 9 -10 9 -5 0
-10 -7 -10 -16z"/>
<path d="M1100 1289 c0 -5 5 -7 10 -4 6 3 10 8 10 11 0 2 -4 4 -10 4 -5 0 -10
-5 -10 -11z"/>
<path d="M840 1230 c0 -5 5 -10 10 -10 6 0 10 5 10 10 0 6 -4 10 -10 10 -5 0
-10 -4 -10 -10z"/>
<path d="M1060 1116 c0 -7 6 -19 14 -25 11 -9 12 -6 8 14 -5 26 -22 35 -22 11z"/>
<path d="M2855 1120 c-3 -5 -1 -10 4 -10 6 0 11 5 11 10 0 6 -2 10 -4 10 -3 0
-8 -4 -11 -10z"/>
<path d="M2245 1150 c-3 -5 -1 -10 4 -10 6 0 11 5 11 10 0 6 -2 10 -4 10 -3 0
-8 -4 -11 -10z"/>
<path d="M2642 1028 c-7 -7 -12 -19 -12 -27 1 -13 2 -13 11 2 5 9 17 17 25 17
8 0 12 5 9 10 -8 13 -18 13 -33 -2z"/>
<path d="M2600 1020 c0 -5 5 -10 10 -10 6 0 10 5 10 10 0 6 -4 10 -10 10 -5 0
-10 -4 -10 -10z"/>
<path d="M2660 985 c0 -8 5 -15 10 -15 6 0 10 7 10 15 0 8 -4 15 -10 15 -5 0
-10 -7 -10 -15z"/>
<path d="M1050 921 c0 -5 7 -12 16 -15 14 -5 15 -4 4 9 -14 17 -20 19 -20 6z"/>
<path d="M1691 994 c0 -11 3 -14 6 -6 3 7 2 16 -1 19 -3 4 -6 -2 -5 -13z"/>
<path d="M1826 935 c-3 -8 -1 -15 4 -15 6 0 10 7 10 15 0 8 -2 15 -4 15 -2 0
-6 -7 -10 -15z"/>
<path d="M3670 790 c0 -11 7 -20 15 -20 9 0 18 -7 21 -15 7 -17 24 -21 24 -5
0 9 -47 60 -55 60 -3 0 -5 -9 -5 -20z"/>
<path d="M2180 743 c0 -22 2 -25 10 -13 13 20 13 40 0 40 -5 0 -10 -12 -10
-27z"/>
<path d="M3175 739 c-10 -15 3 -25 16 -12 7 7 7 13 1 17 -6 3 -14 1 -17 -5z"/>
<path d="M3364 675 c-8 -20 3 -48 16 -40 13 8 13 55 0 55 -6 0 -13 -7 -16 -15z"/>
<path d="M4390 480 c0 -11 5 -20 10 -20 6 0 10 9 10 20 0 11 -4 20 -10 20 -5
0 -10 -9 -10 -20z"/>
<path d="M3465 630 c-9 -14 4 -52 16 -45 12 8 12 55 0 55 -6 0 -13 -5 -16 -10z"/>
<path d="M2654 515 c-4 -9 -2 -21 3 -26 7 -7 12 -3 16 10 6 25 -11 39 -19 16z"/>
<path d="M2373 424 c-3 -8 -1 -20 6 -27 8 -8 11 -4 11 16 0 30 -7 35 -17 11z"/>
<path d="M2542 325 c0 -16 2 -22 5 -12 2 9 2 23 0 30 -3 6 -5 -1 -5 -18z"/>
<path d="M3770 461 c0 -17 18 -21 24 -6 3 9 0 15 -9 15 -8 0 -15 -4 -15 -9z"/>
<path d="M3990 355 c0 -8 5 -15 10 -15 6 0 10 7 10 15 0 8 -4 15 -10 15 -5 0
-10 -7 -10 -15z"/>
<path d="M3108 304 c-5 -4 -8 -19 -8 -33 0 -18 3 -22 11 -14 6 6 9 21 7 33 -1
12 -6 18 -10 14z"/>
<path d="M4117 354 c-11 -11 -8 -64 3 -64 6 0 13 7 17 16 7 18 -9 58 -20 48z"/>
<path d="M1470 265 c0 -8 4 -15 10 -15 5 0 7 7 4 15 -4 8 -8 15 -10 15 -2 0
-4 -7 -4 -15z"/>
<path d="M4227 293 c-13 -12 -7 -53 7 -53 17 0 28 24 20 45 -7 16 -17 19 -27
8z"/>
<path d="M3285 200 c-3 -6 -3 -20 0 -31 6 -17 9 -19 16 -8 12 19 11 49 0 49
-6 0 -13 -5 -16 -10z"/>
<path d="M2966 111 c-4 -5 -3 -17 0 -26 5 -13 8 -14 15 -3 5 7 9 19 9 26 0 14
-16 16 -24 3z"/>
<path d="M1320 5500 c0 -5 5 -10 11 -10 5 0 7 5 4 10 -3 6 -8 10 -11 10 -2 0
-4 -4 -4 -10z"/>
<path d="M1425 5500 c3 -5 8 -10 11 -10 2 0 4 5 4 10 0 6 -5 10 -11 10 -5 0
-7 -4 -4 -10z"/>
<path d="M1900 5485 c0 -15 4 -24 10 -20 6 3 10 12 10 20 0 8 -4 17 -10 20 -6
4 -10 -5 -10 -20z"/>
<path d="M2161 5484 c0 -11 3 -14 6 -6 3 7 2 16 -1 19 -3 4 -6 -2 -5 -13z"/>
<path d="M1757 5469 c4 -16 8 -17 14 -7 13 19 11 28 -5 28 -9 0 -12 -7 -9 -21z"/>
<path d="M1840 5465 c0 -8 7 -15 15 -15 8 0 15 4 15 9 0 5 -7 11 -15 15 -9 3
-15 0 -15 -9z"/>
<path d="M1357 5429 c7 -7 15 -10 18 -7 3 3 -2 9 -12 12 -14 6 -15 5 -6 -5z"/>
<path d="M1400 5430 c0 -5 7 -10 15 -10 8 0 15 5 15 10 0 6 -7 10 -15 10 -8 0
-15 -4 -15 -10z"/>
<path d="M915 5270 c3 -5 10 -10 16 -10 5 0 9 5 9 10 0 6 -7 10 -16 10 -8 0
-12 -4 -9 -10z"/>
<path d="M795 5259 c-11 -17 1 -21 15 -4 8 9 8 15 2 15 -6 0 -14 -5 -17 -11z"/>
<path d="M840 5260 c0 -5 6 -10 14 -10 8 0 18 5 21 10 3 6 -3 10 -14 10 -12 0
-21 -4 -21 -10z"/>
<path d="M981 5214 c0 -11 3 -14 6 -6 3 7 2 16 -1 19 -3 4 -6 -2 -5 -13z"/>
<path d="M661 5204 c0 -11 3 -14 6 -6 3 7 2 16 -1 19 -3 4 -6 -2 -5 -13z"/>
<path d="M940 5210 c0 -5 5 -10 11 -10 5 0 7 5 4 10 -3 6 -8 10 -11 10 -2 0
-4 -4 -4 -10z"/>
<path d="M945 5180 c-3 -6 1 -7 9 -4 18 7 21 14 7 14 -6 0 -13 -4 -16 -10z"/>
<path d="M895 5150 c-4 -6 1 -7 11 -3 13 5 15 3 9 -7 -5 -9 -4 -11 4 -6 6 4 9
12 6 17 -8 12 -22 12 -30 -1z"/>
<path d="M815 5140 c-3 -5 1 -10 9 -10 9 0 16 5 16 10 0 6 -4 10 -9 10 -6 0
-13 -4 -16 -10z"/>
<path d="M1019 5108 c-3 -22 -1 -34 4 -29 5 5 7 21 5 37 -3 27 -4 26 -9 -8z"/>
<path d="M737 5106 c-3 -8 0 -19 7 -25 11 -9 14 -6 14 14 0 27 -13 34 -21 11z"/>
<path d="M1296 5105 c-9 -26 -7 -32 5 -12 6 10 9 21 6 23 -2 3 -7 -2 -11 -11z"/>
<path d="M801 5094 c0 -11 3 -14 6 -6 3 7 2 16 -1 19 -3 4 -6 -2 -5 -13z"/>
<path d="M1230 5081 c0 -6 5 -13 10 -16 6 -3 10 1 10 9 0 9 -4 16 -10 16 -5 0
-10 -4 -10 -9z"/>
<path d="M630 5071 c0 -5 7 -12 16 -15 24 -9 27 -7 10 9 -17 17 -26 19 -26 6z"/>
<path d="M735 5040 c-18 -7 -18 -9 -3 -15 23 -9 39 -3 30 11 -4 7 -15 8 -27 4z"/>
<path d="M788 5016 c-10 -7 -18 -17 -18 -21 0 -4 6 -2 14 4 11 10 18 7 31 -11
l16 -23 -3 29 c-3 34 -16 41 -40 22z"/>
<path d="M627 4993 c-2 -5 -5 -25 -6 -46 -1 -21 -7 -52 -12 -69 -9 -34 -6 -44
10 -34 6 4 8 13 4 21 -3 8 -1 15 3 15 5 0 9 12 10 28 0 15 4 42 7 60 6 28 -5
46 -16 25z"/>
<path d="M693 4955 c-3 -9 -3 -18 -1 -21 3 -3 8 4 11 16 6 23 -1 27 -10 5z"/>
<path d="M772 4958 c-15 -15 -16 -41 0 -36 6 2 13 14 15 26 3 25 2 27 -15 10z"/>
<path d="M810 4930 c0 -17 24 -22 51 -10 24 10 24 10 -3 5 -16 -3 -28 -1 -28
5 0 5 -4 10 -10 10 -5 0 -10 -5 -10 -10z"/>
<path d="M690 4900 c-20 -12 -9 -21 18 -13 12 3 19 9 16 14 -7 11 -15 11 -34
-1z"/>
<path d="M683 4856 c-13 -6 -23 -14 -23 -19 0 -4 4 -5 10 -2 5 3 19 1 31 -5
11 -7 24 -9 27 -5 3 3 -4 8 -16 12 -18 4 -20 8 -11 19 13 16 13 16 -18 0z"/>
<path d="M750 4836 c0 -2 7 -7 16 -10 8 -3 12 -2 9 4 -6 10 -25 14 -25 6z"/>
<path d="M770 4746 c6 -58 14 -75 25 -57 3 6 2 11 -4 11 -5 0 -9 21 -8 47 1
25 -3 48 -9 50 -7 2 -8 -15 -4 -51z"/>
<path d="M812 4780 c2 -8 -3 -14 -10 -12 -16 3 -11 -20 5 -25 15 -5 26 28 13
41 -8 8 -11 7 -8 -4z"/>
<path d="M708 4753 c6 -2 10 -9 6 -14 -9 -15 2 -10 16 6 10 13 9 15 -11 14
-13 0 -18 -3 -11 -6z"/>
<path d="M752 4710 c0 -14 2 -19 5 -12 2 6 2 18 0 25 -3 6 -5 1 -5 -13z"/>
<path d="M790 4719 c0 -5 5 -7 10 -4 6 3 10 8 10 11 0 2 -4 4 -10 4 -5 0 -10
-5 -10 -11z"/>
<path d="M587 4713 c-4 -3 -7 -13 -7 -22 1 -13 3 -13 11 2 11 19 8 33 -4 20z"/>
<path d="M696 4703 c-10 -10 -7 -25 3 -18 5 3 13 -4 16 -16 5 -16 9 -18 15 -9
14 23 -16 61 -34 43z"/>
<path d="M660 4684 c0 -6 5 -15 12 -22 9 -9 8 -15 -8 -27 -10 -8 -14 -15 -8
-15 6 0 18 8 26 18 14 15 14 19 -3 36 -11 11 -19 15 -19 10z"/>
<path d="M570 4600 c0 -11 4 -20 9 -20 5 0 7 9 4 20 -3 11 -7 20 -9 20 -2 0
-4 -9 -4 -20z"/>
<path d="M595 4560 c3 -5 8 -10 11 -10 2 0 4 5 4 10 0 6 -5 10 -11 10 -5 0 -7
-4 -4 -10z"/>
<path d="M5302 94 c4 -21 22 -23 26 -1 2 10 -3 17 -13 17 -10 0 -15 -6 -13
-16z"/>
<path d="M1503 40 c-8 -31 -7 -40 2 -40 13 0 25 30 25 63 0 31 -16 18 -27 -23z"/>
<path d="M3054 35 c-9 -27 -8 -35 1 -35 12 0 25 30 25 58 0 25 -15 11 -26 -23z"/>
<path d="M5370 10 c0 -5 5 -10 10 -10 6 0 10 5 10 10 0 6 -4 10 -10 10 -5 0
-10 -4 -10 -10z"/>
</g>
</svg>
